<svg xmlns="http://www.w3.org/2000/svg" width="12.938" height="16.23" viewBox="0 0 12.938 16.23">
  <g id="Group_24" data-name="Group 24" transform="translate(-8506.461 -165.859)">
    <path id="Path_5" data-name="Path 5" d="M223.151,143.364l-.436,11.763a.4.4,0,0,1-.388.373H214.8a.4.4,0,0,1-.388-.373l-.436-11.763a.588.588,0,1,0-1.175.043l.436,11.763a1.573,1.573,0,0,0,1.563,1.505h7.527a1.572,1.572,0,0,0,1.563-1.505l.436-11.763a.588.588,0,1,0-1.175-.043Z" transform="translate(8294.366 25.414)" fill="#999"/>
    <path id="Path_6" data-name="Path 6" d="M338.8,202.071v8a.47.47,0,1,0,.941,0v-8a.47.47,0,1,0-.941,0Z" transform="translate(8173.659 -30.92)" fill="#999"/>
    <path id="Path_7" data-name="Path 7" d="M277.2,202.086l.235,8a.47.47,0,0,0,.94-.028l-.235-8a.47.47,0,1,0-.94.028Z" transform="translate(8232.676 -30.921)" fill="#999"/>
    <path id="Path_8" data-name="Path 8" d="M395.039,202.055l-.235,8a.47.47,0,1,0,.94.028l.235-8a.47.47,0,1,0-.94-.028Z" transform="translate(8120.008 -30.917)" fill="#999"/>
    <path id="Path_9" data-name="Path 9" d="M196.588,135.576h11.761a.588.588,0,1,0,0-1.176H196.588a.588.588,0,1,0,0,1.176Z" transform="translate(8310.461 33.458)" fill="#999"/>
    <path id="Path_10" data-name="Path 10" d="M281.669,89.2l.245-.857a.57.57,0,0,1,.482-.363h2.121a.57.57,0,0,1,.482.363l.245.857,1.131-.323-.245-.857a1.738,1.738,0,0,0-1.612-1.216H282.4a1.738,1.738,0,0,0-1.612,1.216l-.245.857Z" transform="translate(8229.474 79.055)" fill="#999"/>
  </g>
</svg>
