<svg xmlns="http://www.w3.org/2000/svg" width="54" height="54" viewBox="0 0 54 54">
  <g id="Delivery_Time" data-name="Delivery Time" transform="translate(-2313 -1115)">
    <rect id="Rectangle_2" data-name="Rectangle 2" width="54" height="54" transform="translate(2313 1115)" fill="#fff" opacity="0"/>
    <g id="Group_5" data-name="Group 5" transform="translate(1244.547 411.233)">
      <g id="Group_2" data-name="Group 2" transform="translate(1069.453 709.767)">
        <g id="Group_1" data-name="Group 1">
          <path id="Path_1" data-name="Path 1" d="M128.06,93.109l-7.475-12.046H110.139a7.228,7.228,0,0,0-1.865-4.2,6.674,6.674,0,0,0-4.99-1.888H98.665A12.6,12.6,0,1,0,78.554,89.936v14.806h4.217a6.029,6.029,0,0,0,12.043,0H110.9a6.027,6.027,0,0,0,12.038,0h5.118V93.11ZM87.846,71.315a10.125,10.125,0,0,1,10.031,8.867H96.8a1.25,1.25,0,0,0,0,2.5h1.073a10.126,10.126,0,0,1-8.782,8.782v-.938a1.25,1.25,0,0,0-2.5,0v.938a10.125,10.125,0,0,1-8.781-8.782h1.067a1.25,1.25,0,1,0,0-2.5H77.816a10.125,10.125,0,0,1,10.03-8.867Zm.948,36.649a3.538,3.538,0,1,1,3.538-3.538A3.542,3.542,0,0,1,88.794,107.964Zm18.894-5.722s-13.162.016-13.257.039a6.028,6.028,0,0,0-11.259-.039H81.054V92.047A12.593,12.593,0,0,0,99.816,77.479h3.467A4.3,4.3,0,0,1,106.47,78.6a5.051,5.051,0,0,1,1.217,3.258v20.387Zm9.236,5.722a3.538,3.538,0,1,1,3.535-3.538A3.541,3.541,0,0,1,116.924,107.964Zm5.619-5.722a6.026,6.026,0,0,0-11.241,0h-1.116V83.562h9.008l5.02,8.091h-8.978V88.019H117.3a1.249,1.249,0,1,0,0-2.5h-4.566v8.632H125.56v8.091h-3.017Z" transform="translate(-75.231 -68.817)" fill="#2d2d2d"/>
          <path id="Path_2" data-name="Path 2" d="M198.888,118.887a1.249,1.249,0,0,0-1.249-1.25H195.28V111.53a1.25,1.25,0,1,0-2.5,0v8.605h4.857a1.249,1.249,0,0,0,1.25-1.249Z" transform="translate(-181.416 -106.271)" fill="#2d2d2d"/>
        </g>
      </g>
    </g>
  </g>
</svg>
