<svg xmlns="http://www.w3.org/2000/svg" width="20" height="20" viewBox="0 0 20 20"><defs><style>.a{fill:#fff;opacity:0;}.b{fill:#2c2c2c;}</style></defs><g transform="translate(889 -921)"><rect class="a" width="20" height="20" transform="translate(-889 921)"/><g transform="translate(-890 920)"><path class="b" d="M19.515,6.107H18.238A3.192,3.192,0,0,0,15.684,1a5.746,5.746,0,0,0-5.107,3.128A5.746,5.746,0,0,0,5.469,1,3.192,3.192,0,0,0,2.915,6.107H1.638A.638.638,0,0,0,1,6.746v3.831a.638.638,0,0,0,.638.638h.638v8.3a.638.638,0,0,0,.638.638H18.238a.638.638,0,0,0,.638-.638v-8.3h.638a.638.638,0,0,0,.638-.638V6.746A.638.638,0,0,0,19.515,6.107ZM15.684,2.277a1.915,1.915,0,0,1,0,3.831H11.26a4.469,4.469,0,0,1,4.424-3.831ZM3.554,4.192A1.915,1.915,0,0,1,5.469,2.277,4.469,4.469,0,0,1,9.893,6.107H5.469A1.915,1.915,0,0,1,3.554,4.192ZM2.277,7.384H9.938V9.938H2.277ZM17.6,18.876H3.554V11.215H9.938v5.746a.638.638,0,0,0,1.277,0V11.215H17.6Zm1.277-8.938H11.215V7.384h7.661Z" transform="translate(0 0)"/></g></g></svg>