<svg id="Group_5744" data-name="Group 5744" xmlns="http://www.w3.org/2000/svg" width="44.278" height="53.407" viewBox="0 0 44.278 53.407">
  <g id="Group_6313" data-name="Group 6313">
    <g id="Group_6200" data-name="Group 6200" transform="translate(0.331 23.92)">
      <g id="Group_6175" data-name="Group 6175" transform="translate(0 4.114)">
        <path id="Path_4406" data-name="Path 4406" d="M-47.379,219.389a14.161,14.161,0,0,0-5.249-4.854c-8.581-4.955-22.493-4.955-31.074,0a14.169,14.169,0,0,0-5.249,4.854h-1.187v4.489h.016c.158,3.121,2.294,6.215,6.42,8.6,8.581,4.954,22.494,4.954,31.075,0,4.126-2.383,6.262-5.477,6.42-8.6h.015v-4.489Z" transform="translate(90.138 -210.819)" fill="#f6a526"/>
        <g id="Group_6173" data-name="Group 6173" transform="translate(25.066 9.865)">
          <path id="Path_4407" data-name="Path 4407" d="M-56.565,234.278V223.646h-3.6v11.676A30.319,30.319,0,0,0-56.565,234.278Z" transform="translate(65.072 -220.684)" fill="#fceb3b"/>
          <path id="Path_4408" data-name="Path 4408" d="M-54.052,233.225c.488-.236.965-.484,1.425-.749a15.361,15.361,0,0,0,4.495-3.762v-8.03h-5.92Z" transform="translate(65.072 -220.684)" fill="#fceb3b"/>
          <path id="Path_4409" data-name="Path 4409" d="M-62.338,235.736v-7.375h-2.734v7.7C-64.152,235.99-63.239,235.878-62.338,235.736Z" transform="translate(65.072 -220.684)" fill="#fceb3b"/>
        </g>
        <g id="Group_6174" data-name="Group 6174" transform="translate(2.283 8.739)">
          <path id="Path_4410" data-name="Path 4410" d="M-73.36,235.833V223.567h-7.95v10.1A30.94,30.94,0,0,0-73.36,235.833Z" transform="translate(87.855 -219.558)" fill="#ee9016"/>
          <path id="Path_4411" data-name="Path 4411" d="M-83.7,219.558h-4.153v9.577a15.883,15.883,0,0,0,4.153,3.341h0Z" transform="translate(87.855 -219.558)" fill="#ee9016"/>
        </g>
      </g>
      <g id="Group_6176" data-name="Group 6176" transform="translate(0)">
        <ellipse id="Ellipse_577" data-name="Ellipse 577" cx="21.973" cy="12.686" rx="21.973" ry="12.686" fill="#f6a41b"/>
        <path id="Path_4412" data-name="Path 4412" d="M-53.1,211.25a30.617,30.617,0,0,0-15.061-3.591,30.6,30.6,0,0,0-15.056,3.591c-3.844,2.218-5.957,5.106-5.957,8.142s2.113,5.924,5.957,8.143a30.662,30.662,0,0,0,15.056,3.586A30.682,30.682,0,0,0-53.1,227.535c3.839-2.219,5.957-5.112,5.957-8.143S-49.266,213.468-53.1,211.25Zm-4.941,13.828a22.644,22.644,0,0,1-10.12,2.162,22.626,22.626,0,0,1-10.116-2.162c-2.877-1.475-4.461-3.493-4.461-5.686s1.584-4.215,4.461-5.689a22.68,22.68,0,0,1,10.116-2.159,22.7,22.7,0,0,1,10.12,2.159c2.873,1.474,4.457,3.5,4.457,5.689S-55.173,223.6-58.046,225.078Z" transform="translate(90.138 -206.704)" fill="#ffd422"/>
      </g>
      <g id="Group_6179" data-name="Group 6179" transform="translate(0)">
        <path id="Path_4413" data-name="Path 4413" d="M-58.046,213.7a22.7,22.7,0,0,0-10.12-2.159A22.68,22.68,0,0,0-78.282,213.7c-2.877,1.474-4.461,3.5-4.461,5.689s1.584,4.211,4.461,5.686a22.626,22.626,0,0,0,10.116,2.162,22.644,22.644,0,0,0,10.12-2.162c2.873-1.475,4.457-3.493,4.457-5.686S-55.173,215.177-58.046,213.7Z" transform="translate(90.138 -206.704)" fill="#e47f1a"/>
        <path id="Path_4414" data-name="Path 4414" d="M-52.628,210.42c-8.581-4.954-22.493-4.954-31.074,0s-8.581,12.987,0,17.941,22.494,4.954,31.075,0S-44.046,215.374-52.628,210.42Z" transform="translate(90.138 -206.704)" fill="#f6a41b"/>
        <g id="Group_6177" data-name="Group 6177" transform="translate(0.05 0.001)" opacity="0.2">
          <path id="Path_4415" data-name="Path 4415" d="M-77.913,230.76a33.562,33.562,0,0,0,4.894,1l-16.131-16.13a8.082,8.082,0,0,0-.938,2.953Z" transform="translate(90.088 -206.705)" fill="#fff148" style="mix-blend-mode: soft-light;isolation: isolate"/>
          <path id="Path_4416" data-name="Path 4416" d="M-86.948,212.808a12.742,12.742,0,0,0-.947,1l18.237,18.237q.985.039,1.972.026Z" transform="translate(90.088 -206.705)" fill="#fff148" style="mix-blend-mode: soft-light;isolation: isolate"/>
          <path id="Path_4417" data-name="Path 4417" d="M-66.111,206.76a37.243,37.243,0,0,0-9.651.727L-54.11,229.14c.509-.245,1.005-.5,1.483-.779a15.459,15.459,0,0,0,4.437-3.68Z" transform="translate(90.088 -206.705)" fill="#fff148" style="mix-blend-mode: soft-light;isolation: isolate"/>
          <path id="Path_4418" data-name="Path 4418" d="M-83.193,210.141c-.171.092-.343.183-.509.279a18.827,18.827,0,0,0-1.963,1.3l20.252,20.252c1.219-.088,2.428-.234,3.613-.44Z" transform="translate(90.088 -206.705)" fill="#fff148" style="mix-blend-mode: soft-light;isolation: isolate"/>
          <path id="Path_4419" data-name="Path 4419" d="M-78.458,208.18a27.026,27.026,0,0,0-3.323,1.256l21.743,21.743A30.33,30.33,0,0,0-56.5,230.14Z" transform="translate(90.088 -206.705)" fill="#fff148" style="mix-blend-mode: soft-light;isolation: isolate"/>
          <path id="Path_4420" data-name="Path 4420" d="M-59.27,207.791q-1.217-.312-2.48-.534l14.992,14.991a7.973,7.973,0,0,0,.438-1.508Z" transform="translate(90.088 -206.705)" fill="#fff148" style="mix-blend-mode: soft-light;isolation: isolate"/>
        </g>
        <path id="Path_4421" data-name="Path 4421" d="M-53.1,211.25a30.617,30.617,0,0,0-15.061-3.591,30.6,30.6,0,0,0-15.056,3.591c-3.844,2.218-5.957,5.106-5.957,8.142s2.113,5.924,5.957,8.143a30.662,30.662,0,0,0,15.056,3.586A30.682,30.682,0,0,0-53.1,227.535c3.839-2.219,5.957-5.112,5.957-8.143S-49.266,213.468-53.1,211.25Zm-4.941,13.828a22.644,22.644,0,0,1-10.12,2.162,22.626,22.626,0,0,1-10.116-2.162c-2.877-1.475-4.461-3.493-4.461-5.686s1.584-4.215,4.461-5.689a22.68,22.68,0,0,1,10.116-2.159,22.7,22.7,0,0,1,10.12,2.159c2.873,1.474,4.457,3.5,4.457,5.689S-55.173,223.6-58.046,225.078Z" transform="translate(90.138 -206.704)" fill="#ffd422"/>
        <g id="Group_6178" data-name="Group 6178" transform="translate(0.959 0.954)">
          <path id="Path_4422" data-name="Path 4422" d="M-58.046,213.7a22.7,22.7,0,0,0-10.12-2.159A22.68,22.68,0,0,0-78.282,213.7c-2.877,1.474-4.461,3.5-4.461,5.689s1.584,4.211,4.461,5.686a22.626,22.626,0,0,0,10.116,2.162,22.644,22.644,0,0,0,10.12-2.162c2.873-1.475,4.457-3.493,4.457-5.686S-55.173,215.177-58.046,213.7Z" transform="translate(89.179 -207.659)" fill="#ed921a"/>
          <path id="Path_4423" data-name="Path 4423" d="M-53.1,211.25a30.617,30.617,0,0,0-15.061-3.591,30.6,30.6,0,0,0-15.056,3.591c-3.844,2.218-5.957,5.106-5.957,8.142s2.113,5.924,5.957,8.143a30.662,30.662,0,0,0,15.056,3.586A30.682,30.682,0,0,0-53.1,227.535c3.839-2.219,5.957-5.112,5.957-8.143S-49.266,213.468-53.1,211.25Zm-4.941,13.828a22.644,22.644,0,0,1-10.12,2.162,22.626,22.626,0,0,1-10.116-2.162c-2.877-1.475-4.461-3.493-4.461-5.686s1.584-4.215,4.461-5.689a22.68,22.68,0,0,1,10.116-2.159,22.7,22.7,0,0,1,10.12,2.159c2.873,1.474,4.457,3.5,4.457,5.689S-55.173,223.6-58.046,225.078Z" transform="translate(89.179 -207.659)" fill="#ffd422"/>
        </g>
      </g>
      <g id="Group_6180" data-name="Group 6180" transform="translate(0.959 0.956)">
        <path id="Path_4424" data-name="Path 4424" d="M-60.728,228.011h0a3.908,3.908,0,0,0-3.551-1.046c-.748.114-1.506.185-2.268.224-.163.009-.326.016-.49.023l-.247.006c-.293.009-.585.022-.881.022a22.626,22.626,0,0,1-10.116-2.162c-2.877-1.475-4.461-3.493-4.461-5.686a4.765,4.765,0,0,1,.674-2.409l0-.007c.391-.852-1.1-2.113-2.49-2.474a3.341,3.341,0,0,0-3.591,1.288c-.028.048-.057.1-.084.144-.067.117-.124.234-.184.351a6.912,6.912,0,0,0-.764,3.107c0,3.031,2.113,5.924,5.957,8.143a30.662,30.662,0,0,0,15.056,3.586,36.436,36.436,0,0,0,5.983-.489C-60.693,230.188-60.027,228.916-60.728,228.011Z" transform="translate(89.179 -207.66)" fill="#fabd1f"/>
        <path id="Path_4425" data-name="Path 4425" d="M-75.6,210.769h0a3.911,3.911,0,0,0,3.551,1.046c.748-.114,1.506-.185,2.268-.224.163-.01.326-.017.49-.023.082,0,.165-.005.247-.006.293-.009.585-.022.881-.022A22.626,22.626,0,0,1-58.045,213.7c2.877,1.474,4.461,3.493,4.461,5.685a4.762,4.762,0,0,1-.674,2.409l0,.007c-.391.853,1.1,2.114,2.49,2.474a3.341,3.341,0,0,0,3.591-1.288c.028-.048.057-.1.084-.144.067-.116.124-.234.184-.351a6.909,6.909,0,0,0,.764-3.107c0-3.031-2.113-5.924-5.957-8.142a30.651,30.651,0,0,0-15.056-3.586,36.325,36.325,0,0,0-5.983.489C-75.634,208.593-76.3,209.864-75.6,210.769Z" transform="translate(89.179 -207.66)" fill="#fabd1f"/>
      </g>
      <g id="Group_6181" data-name="Group 6181" transform="translate(8.153 5.593)">
        <ellipse id="Ellipse_578" data-name="Ellipse 578" cx="13.82" cy="7.092" rx="13.82" ry="7.092" fill="#d76d12"/>
        <path id="Path_4426" data-name="Path 4426" d="M-58.393,216.254c-5.4-2.77-14.147-2.77-19.544,0-2.232,1.145-3.538,2.585-3.924,4.075.386,1.491,1.692,2.93,3.924,4.076,5.4,2.769,14.148,2.769,19.545,0,2.231-1.145,3.537-2.585,3.923-4.076C-54.855,218.839-56.161,217.4-58.393,216.254Z" transform="translate(81.985 -212.297)" fill="#f6a41b"/>
      </g>
      <g id="Group_6182" data-name="Group 6182" transform="translate(8.4 7.479)" opacity="0.5">
        <path id="Path_4427" data-name="Path 4427" d="M-58.393,216.254A22.518,22.518,0,0,0-69.051,214.2l10.35,10.35c.1-.049.209-.092.309-.143,2.231-1.145,3.537-2.585,3.923-4.076Z" transform="translate(81.738 -214.183)" fill="#fff148" style="mix-blend-mode: soft-light;isolation: isolate"/>
        <path id="Path_4428" data-name="Path 4428" d="M-77.352,215.982c-.2.09-.4.175-.585.272a10.816,10.816,0,0,0-1.94,1.257l8.809,8.808a26.89,26.89,0,0,0,4.184.132Z" transform="translate(81.738 -214.183)" fill="#fff148" style="mix-blend-mode: soft-light;isolation: isolate"/>
        <path id="Path_4429" data-name="Path 4429" d="M-81.051,218.706a4.815,4.815,0,0,0-.687,1.258l4.974,4.974a19.031,19.031,0,0,0,2.837.891Z" transform="translate(81.738 -214.183)" fill="#fff148" style="mix-blend-mode: soft-light;isolation: isolate"/>
        <path id="Path_4430" data-name="Path 4430" d="M-72.159,214.479a21.479,21.479,0,0,0-3.685.894l10.906,10.906a22.627,22.627,0,0,0,3.791-.788Z" transform="translate(81.738 -214.183)" fill="#fff148" style="mix-blend-mode: soft-light;isolation: isolate"/>
      </g>
      <g id="Group_6187" data-name="Group 6187" transform="translate(2.283 11.464)">
        <g id="Group_6183" data-name="Group 6183" transform="translate(5.561 7.093)">
          <path id="Path_4431" data-name="Path 4431" d="M-78.748,226.315a1.15,1.15,0,0,0-.432-.409,2.853,2.853,0,0,0-2.58,0,1.147,1.147,0,0,0-.431.409h-.1v.336a.907.907,0,0,0,.534.745,2.853,2.853,0,0,0,2.58,0,.906.906,0,0,0,.535-.745v-.336Z" transform="translate(82.294 -225.262)" fill="#d76d12"/>
          <path id="Path_4432" data-name="Path 4432" d="M-81.76,225.57a.787.787,0,0,0,0,1.49,2.853,2.853,0,0,0,2.58,0,.786.786,0,0,0,0-1.489A2.85,2.85,0,0,0-81.76,225.57Z" transform="translate(82.294 -225.262)" fill="#ffd422"/>
          <path id="Path_4433" data-name="Path 4433" d="M-79.181,227.062a1.862,1.862,0,0,1-.412.177c.043-.019.086-.043.13-.067a.785.785,0,0,0,0-1.487,2.875,2.875,0,0,0-2.195-.167,2.863,2.863,0,0,1,2.477.053A.787.787,0,0,1-79.181,227.062Z" transform="translate(82.294 -225.262)" fill="#ffffa1" style="mix-blend-mode: hard-light;isolation: isolate"/>
        </g>
        <g id="Group_6184" data-name="Group 6184" transform="translate(1.481 3.867)">
          <path id="Path_4434" data-name="Path 4434" d="M-82.827,223.089a1.151,1.151,0,0,0-.432-.409,2.853,2.853,0,0,0-2.58,0,1.151,1.151,0,0,0-.432.409h-.1v.336a.907.907,0,0,0,.534.745,2.853,2.853,0,0,0,2.58,0,.907.907,0,0,0,.534-.745v-.336Z" transform="translate(86.374 -222.036)" fill="#d76d12"/>
          <path id="Path_4435" data-name="Path 4435" d="M-85.839,222.345a.786.786,0,0,0,0,1.489,2.847,2.847,0,0,0,2.58,0,.786.786,0,0,0,0-1.489A2.847,2.847,0,0,0-85.839,222.345Z" transform="translate(86.374 -222.036)" fill="#ffd422"/>
          <path id="Path_4436" data-name="Path 4436" d="M-83.261,223.836a1.854,1.854,0,0,1-.411.177,1.324,1.324,0,0,0,.129-.067.784.784,0,0,0,0-1.487,2.874,2.874,0,0,0-2.195-.167,2.863,2.863,0,0,1,2.477.053A.787.787,0,0,1-83.261,223.836Z" transform="translate(86.374 -222.036)" fill="#ffffa1" style="mix-blend-mode: hard-light;isolation: isolate"/>
        </g>
        <g id="Group_6185" data-name="Group 6185">
          <path id="Path_4437" data-name="Path 4437" d="M-84.309,219.222a1.151,1.151,0,0,0-.432-.409,2.847,2.847,0,0,0-2.58,0,1.151,1.151,0,0,0-.432.409h-.1v.336a.905.905,0,0,0,.534.744,2.847,2.847,0,0,0,2.58,0,.9.9,0,0,0,.535-.744v-.336Z" transform="translate(87.855 -218.169)" fill="#d76d12"/>
          <path id="Path_4438" data-name="Path 4438" d="M-87.321,218.477a.787.787,0,0,0,0,1.49,2.853,2.853,0,0,0,2.58,0,.786.786,0,0,0,0-1.49A2.853,2.853,0,0,0-87.321,218.477Z" transform="translate(87.855 -218.169)" fill="#ffd422"/>
          <path id="Path_4439" data-name="Path 4439" d="M-84.743,219.969a1.853,1.853,0,0,1-.411.177c.043-.019.086-.043.129-.067a.784.784,0,0,0,0-1.487,2.867,2.867,0,0,0-2.194-.167,2.861,2.861,0,0,1,2.476.052A.788.788,0,0,1-84.743,219.969Z" transform="translate(87.855 -218.169)" fill="#ffffa1" style="mix-blend-mode: hard-light;isolation: isolate"/>
        </g>
        <g id="Group_6186" data-name="Group 6186" transform="translate(11.559 9.242)">
          <path id="Path_4440" data-name="Path 4440" d="M-72.75,228.464a1.151,1.151,0,0,0-.432-.409,2.853,2.853,0,0,0-2.58,0,1.151,1.151,0,0,0-.432.409h-.1v.336a.905.905,0,0,0,.534.744,2.847,2.847,0,0,0,2.58,0,.907.907,0,0,0,.535-.744v-.336Z" transform="translate(76.296 -227.411)" fill="#d76d12"/>
          <path id="Path_4441" data-name="Path 4441" d="M-75.762,227.719a.787.787,0,0,0,0,1.49,2.853,2.853,0,0,0,2.58,0,.786.786,0,0,0,0-1.49A2.853,2.853,0,0,0-75.762,227.719Z" transform="translate(76.296 -227.411)" fill="#ffd422"/>
          <path id="Path_4442" data-name="Path 4442" d="M-73.184,229.211a1.853,1.853,0,0,1-.411.177c.043-.019.086-.043.129-.067a.784.784,0,0,0,0-1.487,2.867,2.867,0,0,0-2.194-.167,2.861,2.861,0,0,1,2.476.052A.788.788,0,0,1-73.184,229.211Z" transform="translate(76.296 -227.411)" fill="#ffffa1" style="mix-blend-mode: hard-light;isolation: isolate"/>
        </g>
      </g>
      <g id="Group_6192" data-name="Group 6192" transform="translate(26.441 2.224)">
        <g id="Group_6188" data-name="Group 6188" transform="translate(11.559 9.242)">
          <path id="Path_4443" data-name="Path 4443" d="M-48.591,219.224a1.151,1.151,0,0,0-.432-.409,2.853,2.853,0,0,0-2.58,0,1.151,1.151,0,0,0-.432.409h-.1v.336a.906.906,0,0,0,.535.745,2.853,2.853,0,0,0,2.58,0,.907.907,0,0,0,.534-.745v-.336Z" transform="translate(52.138 -218.171)" fill="#d76d12"/>
          <path id="Path_4444" data-name="Path 4444" d="M-51.6,218.479a.786.786,0,0,0,0,1.49,2.853,2.853,0,0,0,2.58,0,.786.786,0,0,0,0-1.489A2.85,2.85,0,0,0-51.6,218.479Z" transform="translate(52.138 -218.171)" fill="#ffe423"/>
          <path id="Path_4445" data-name="Path 4445" d="M-49.025,219.971a1.853,1.853,0,0,1-.411.177c.043-.019.086-.043.129-.067a.784.784,0,0,0,0-1.487,2.875,2.875,0,0,0-2.195-.167,2.86,2.86,0,0,1,2.477.053A.787.787,0,0,1-49.025,219.971Z" transform="translate(52.138 -218.171)" fill="#ffffa1" style="mix-blend-mode: hard-light;isolation: isolate"/>
        </g>
        <g id="Group_6189" data-name="Group 6189" transform="translate(10.078 5.374)">
          <path id="Path_4446" data-name="Path 4446" d="M-50.073,215.356a1.15,1.15,0,0,0-.432-.409,2.853,2.853,0,0,0-2.58,0,1.15,1.15,0,0,0-.432.409h-.1v.336a.907.907,0,0,0,.534.745,2.853,2.853,0,0,0,2.58,0,.907.907,0,0,0,.534-.745v-.336Z" transform="translate(53.619 -214.303)" fill="#d76d12"/>
          <path id="Path_4447" data-name="Path 4447" d="M-53.085,214.611a.787.787,0,0,0,0,1.49,2.853,2.853,0,0,0,2.58,0,.787.787,0,0,0,0-1.49A2.853,2.853,0,0,0-53.085,214.611Z" transform="translate(53.619 -214.303)" fill="#ffe423"/>
          <path id="Path_4448" data-name="Path 4448" d="M-50.507,216.1a1.854,1.854,0,0,1-.411.177,1.321,1.321,0,0,0,.129-.067.784.784,0,0,0,0-1.487,2.874,2.874,0,0,0-2.195-.167,2.866,2.866,0,0,1,2.477.052A.788.788,0,0,1-50.507,216.1Z" transform="translate(53.619 -214.303)" fill="#ffffa1" style="mix-blend-mode: hard-light;isolation: isolate"/>
        </g>
        <g id="Group_6190" data-name="Group 6190" transform="translate(5.998 2.149)">
          <path id="Path_4449" data-name="Path 4449" d="M-54.153,212.131a1.147,1.147,0,0,0-.431-.409,2.847,2.847,0,0,0-2.58,0,1.151,1.151,0,0,0-.432.409h-.1v.336a.9.9,0,0,0,.535.744,2.847,2.847,0,0,0,2.58,0,.905.905,0,0,0,.534-.744v-.336Z" transform="translate(57.699 -211.078)" fill="#d76d12"/>
          <path id="Path_4450" data-name="Path 4450" d="M-57.164,211.386a.786.786,0,0,0,0,1.49,2.853,2.853,0,0,0,2.58,0,.787.787,0,0,0,0-1.49A2.853,2.853,0,0,0-57.164,211.386Z" transform="translate(57.699 -211.078)" fill="#ffe423"/>
          <path id="Path_4451" data-name="Path 4451" d="M-54.586,212.878a1.875,1.875,0,0,1-.411.177c.043-.019.086-.043.129-.067a.784.784,0,0,0,0-1.487,2.875,2.875,0,0,0-2.195-.168,2.867,2.867,0,0,1,2.477.053A.788.788,0,0,1-54.586,212.878Z" transform="translate(57.699 -211.078)" fill="#ffffa1" style="mix-blend-mode: hard-light;isolation: isolate"/>
        </g>
        <g id="Group_6191" data-name="Group 6191">
          <path id="Path_4452" data-name="Path 4452" d="M-60.15,209.982a1.143,1.143,0,0,0-.432-.409,2.847,2.847,0,0,0-2.58,0,1.143,1.143,0,0,0-.432.409h-.1v.336a.907.907,0,0,0,.535.744,2.847,2.847,0,0,0,2.58,0,.905.905,0,0,0,.534-.744v-.336Z" transform="translate(63.697 -208.929)" fill="#d76d12"/>
          <path id="Path_4453" data-name="Path 4453" d="M-63.162,209.237a.786.786,0,0,0,0,1.489,2.847,2.847,0,0,0,2.58,0,.786.786,0,0,0,0-1.489A2.853,2.853,0,0,0-63.162,209.237Z" transform="translate(63.697 -208.929)" fill="#ffe423"/>
          <path id="Path_4454" data-name="Path 4454" d="M-60.584,210.729a1.854,1.854,0,0,1-.411.177c.043-.02.086-.043.129-.067a.784.784,0,0,0,0-1.487,2.87,2.87,0,0,0-2.195-.168,2.866,2.866,0,0,1,2.477.053A.788.788,0,0,1-60.584,210.729Z" transform="translate(63.697 -208.929)" fill="#ffffa1" style="mix-blend-mode: hard-light;isolation: isolate"/>
        </g>
      </g>
      <g id="Group_6195" data-name="Group 6195" transform="translate(13.458 7.163)">
        <path id="Path_4455" data-name="Path 4455" d="M-60.025,221.17v-1.838a1.517,1.517,0,0,0-.011-.17,2.393,2.393,0,0,0-1.417-1.719v-.006a5.82,5.82,0,0,0-2.948-.769c-.083,0-.171.006-.253.006h-.028l-.263.016c-.077.006-.154.012-.231.022-.033.006-.066.006-.093.012a1.6,1.6,0,0,0-.176.021,11.8,11.8,0,0,0-1.433.3c-.225.06-.45.126-.67.2l.692-.731v-2.026a8.438,8.438,0,0,0-5.947.33l-1.642-.945-2.235,1.29,1.642.945a2.539,2.539,0,0,0-1.219,1.883V218c.022.631.483,1.241,1.455,1.8,2.158,1.247,4.294.835,6.249.2,1.818-.593,3.141-1.29,4.19-.686.653.379.456.834-.275,1.257a3.606,3.606,0,0,1-3.124.182l-2.1,2.081a8.083,8.083,0,0,0,1.159.34,8.65,8.65,0,0,0,5.189-.626l1.642.95,2.213-1.279-.542-.316A1.583,1.583,0,0,0-60.025,221.17Z" transform="translate(76.68 -213.868)" fill="#fbbc1e"/>
        <path id="Path_4456" data-name="Path 4456" d="M-66.856,214.483v2.026l-.692.73-1.279,1.34v-2.109Z" transform="translate(76.68 -213.868)" fill="#fbbc1e"/>
        <path id="Path_4457" data-name="Path 4457" d="M-68.83,216.471v2.109h-4v-2.47S-69.13,215.542-68.83,216.471Z" transform="translate(76.68 -213.868)" fill="#ea7b1f"/>
        <path id="Path_4458" data-name="Path 4458" d="M-59.654,222.224v1.749l-2.216,1.279-1.64-.948a8.349,8.349,0,0,1-6.348.286v-1.75l1.008-1-1.008.277a6.479,6.479,0,0,1-4.944-.565c-.994-.573-1.455-1.2-1.453-1.846V218l.18-.745-.605-.352v-1.751l1.64.948a2.533,2.533,0,0,0-1.215,1.88V218c.018.629.484,1.239,1.453,1.8,2.156,1.244,4.292.834,6.248.206,1.819-.594,3.144-1.291,4.194-.687.651.377.453.835-.278,1.258a3.639,3.639,0,0,1-3.125.181l-2.1,2.078a7.53,7.53,0,0,0,1.158.339,8.63,8.63,0,0,0,5.19-.624l1.64.948Z" transform="translate(76.68 -213.868)" fill="#d76d12"/>
        <g id="Group_6194" data-name="Group 6194">
          <g id="Group_6193" data-name="Group 6193">
            <path id="Path_4459" data-name="Path 4459" d="M-60.025,222.011l-1.268-.735a2.161,2.161,0,0,0,1.268-1.944,1.517,1.517,0,0,0-.011-.17,2.393,2.393,0,0,0-1.417-1.719v-.006a5.82,5.82,0,0,0-2.948-.769c-.083,0-.171.006-.253.006h-.028l-.263.016c-.077.006-.154.012-.231.022-.033.006-.066.006-.093.012a1.6,1.6,0,0,0-.176.021,11.8,11.8,0,0,0-1.433.3c-.225.06-.45.126-.67.2-.318.1-.631.2-.928.3-.121.044-.236.082-.351.12a10.886,10.886,0,0,1-1.966.561,2.067,2.067,0,0,1-.846-.033,1.815,1.815,0,0,1-.395-.165c-.494-.286-.571-.719.357-1.258a3.241,3.241,0,0,1,2.85-.3l1.971-1.988a8.438,8.438,0,0,0-5.947.33l-1.642-.945-2.235,1.29,1.642.945a2.539,2.539,0,0,0-1.219,1.883V218c.022.631.483,1.241,1.455,1.8,2.158,1.247,4.294.835,6.249.2,1.818-.593,3.141-1.29,4.19-.686.653.379.456.834-.275,1.257a3.606,3.606,0,0,1-3.124.182l-2.1,2.081a8.083,8.083,0,0,0,1.159.34,8.65,8.65,0,0,0,5.189-.626l1.642.95,2.213-1.279Z" transform="translate(76.68 -213.868)" fill="#ffd422"/>
          </g>
        </g>
        <path id="Path_4460" data-name="Path 4460" d="M-63.511,222.555V224.3l1.641.948V223.5Z" transform="translate(76.68 -213.868)" fill="#ea7b1f"/>
        <path id="Path_4461" data-name="Path 4461" d="M-61.87,223.5v1.749l2.215-1.279v-1.749Z" transform="translate(76.68 -213.868)" fill="#fbbc1e"/>
      </g>
      <g id="Group_6196" data-name="Group 6196" transform="translate(13.458 7.163)">
        <path id="Path_4462" data-name="Path 4462" d="M-76.68,215.158l2.212-1.016,1.665.67-1.642-.945Z" transform="translate(76.68 -213.868)" fill="#fbeb96"/>
        <path id="Path_4463" data-name="Path 4463" d="M-69.57,214.251a4.212,4.212,0,0,1,2.251.388l-1.508,1.832,1.971-1.988a8.3,8.3,0,0,0-5.234.065A12.707,12.707,0,0,1-69.57,214.251Z" transform="translate(76.68 -213.868)" fill="#fbeb96"/>
        <path id="Path_4464" data-name="Path 4464" d="M-60.168,218.68a2.946,2.946,0,0,0-1.285-1.237v-.006a5.817,5.817,0,0,0-2.948-.769c-.083,0-.171.006-.253.006h-.028l-.263.016c-.077.006-.154.012-.231.022-.033.006-.066.006-.093.011-.06.006-.121.011-.176.022a11.8,11.8,0,0,0-1.433.3c-.225.06-.45.126-.67.2-.318.1-.631.2-.928.3-.121.044-.236.082-.351.12a10.784,10.784,0,0,1-1.966.56,2.051,2.051,0,0,1-.846-.032,1.815,1.815,0,0,1-.395-.165.686.686,0,0,1-.343-.368h0a1.188,1.188,0,0,0,1.181.757,8.394,8.394,0,0,0,3.029-.666A10.478,10.478,0,0,1-63.511,217C-62.077,217.228-60.594,217.909-60.168,218.68Z" transform="translate(76.68 -213.868)" fill="#fbeb96"/>
        <path id="Path_4465" data-name="Path 4465" d="M-61.293,221.276l1.125.948-1.7,1.278,2.215-1.278Z" transform="translate(76.68 -213.868)" fill="#fbeb96"/>
      </g>
      <g id="Group_6197" data-name="Group 6197" transform="translate(0.959 0.954)" opacity="0.3">
        <path id="Path_4466" data-name="Path 4466" d="M-82.723,218.979a4.684,4.684,0,0,1,.415-1.531l-3.967-3.967a11.893,11.893,0,0,0-.947,1Z" transform="translate(89.179 -207.659)" fill="#fff148" style="mix-blend-mode: soft-light;isolation: isolate"/>
        <path id="Path_4467" data-name="Path 4467" d="M-81.371,216.016a9.41,9.41,0,0,1,2.225-1.827l-3.342-3.343c-.249.131-.494.265-.734.4a18.222,18.222,0,0,0-1.76,1.155Z" transform="translate(89.179 -207.659)" fill="#fff148" style="mix-blend-mode: soft-light;isolation: isolate"/>
        <path id="Path_4468" data-name="Path 4468" d="M-53.594,219.277c0,.038.005.076.005.115,0,2.193-1.584,4.211-4.457,5.686-.028.014-.058.026-.086.039l3.306,3.306c.6-.277,1.172-.572,1.721-.888A14.49,14.49,0,0,0-48.869,224Z" transform="translate(89.179 -207.659)" fill="#fff148" style="mix-blend-mode: soft-light;isolation: isolate"/>
        <path id="Path_4469" data-name="Path 4469" d="M-74.149,230.632l-14.293-14.293a6.9,6.9,0,0,0-.737,3.053c0,.035,0,.07,0,.106l9.789,9.789A30.566,30.566,0,0,0-74.149,230.632Z" transform="translate(89.179 -207.659)" fill="#fff148" style="mix-blend-mode: soft-light;isolation: isolate"/>
        <path id="Path_4470" data-name="Path 4470" d="M-71.5,211.754a27.241,27.241,0,0,1,3.329-.21A24.438,24.438,0,0,1-60,212.869l-5.082-5.083c-1.011-.083-2.04-.127-3.081-.127a35.963,35.963,0,0,0-6.789.635Z" transform="translate(89.179 -207.659)" fill="#fff148" style="mix-blend-mode: soft-light;isolation: isolate"/>
        <path id="Path_4471" data-name="Path 4471" d="M-66.174,227.16c-.656.048-1.319.08-1.992.08-.7,0-1.386-.035-2.067-.085l3.918,3.918a35.979,35.979,0,0,0,3.684-.37Z" transform="translate(89.179 -207.659)" fill="#fff148" style="mix-blend-mode: soft-light;isolation: isolate"/>
        <path id="Path_4472" data-name="Path 4472" d="M-60.541,226.1a22.46,22.46,0,0,1-3.72.858l3.423,3.424a29.845,29.845,0,0,0,3.6-.985Z" transform="translate(89.179 -207.659)" fill="#fff148" style="mix-blend-mode: soft-light;isolation: isolate"/>
        <path id="Path_4473" data-name="Path 4473" d="M-57.885,209.176c-.856-.272-1.743-.509-2.655-.71l13.04,13.04a6.723,6.723,0,0,0,.331-1.615Z" transform="translate(89.179 -207.659)" fill="#fff148" style="mix-blend-mode: soft-light;isolation: isolate"/>
        <path id="Path_4474" data-name="Path 4474" d="M-77.758,213.459a18.766,18.766,0,0,1,3.4-1.18l-3.33-3.331a26.779,26.779,0,0,0-3.367,1.212Z" transform="translate(89.179 -207.659)" fill="#fff148" style="mix-blend-mode: soft-light;isolation: isolate"/>
        <path id="Path_4475" data-name="Path 4475" d="M-72.948,226.809a22.156,22.156,0,0,1-2.574-.629l4.854,4.854q1,.067,2.026.08Z" transform="translate(89.179 -207.659)" fill="#fff148" style="mix-blend-mode: soft-light;isolation: isolate"/>
      </g>
      <g id="Group_6198" data-name="Group 6198" transform="translate(13.881 7.163)" opacity="0.4">
        <path id="Path_4476" data-name="Path 4476" d="M-67.862,217.342c-.208.067-.418.134-.614.2-.121.044-.236.082-.351.12a10.784,10.784,0,0,1-1.966.56,2.07,2.07,0,0,1-.792-.024l2.087,2.086c.319-.083.635-.176.945-.277.975-.318,1.806-.664,2.531-.825Z" transform="translate(76.257 -213.868)" fill="#fff148" style="mix-blend-mode: soft-light;isolation: isolate"/>
        <path id="Path_4477" data-name="Path 4477" d="M-72.363,217.42a1.413,1.413,0,0,1,.686-.653,3.241,3.241,0,0,1,2.85-.3l.046-.047-2.168-2.169a9.5,9.5,0,0,0-1.854.558l-1.642-.945-.932.538Z" transform="translate(76.257 -213.868)" fill="#fff148" style="mix-blend-mode: soft-light;isolation: isolate"/>
        <path id="Path_4478" data-name="Path 4478" d="M-64.63,220.574l-.008,0a3.606,3.606,0,0,1-3.124.182l-.633.628,1.923,1.923a9.478,9.478,0,0,0,2.96-.756l1.642.95.108-.062Z" transform="translate(76.257 -213.868)" fill="#fff148" style="mix-blend-mode: soft-light;isolation: isolate"/>
        <path id="Path_4479" data-name="Path 4479" d="M-67.093,214.722l.237-.239c-.217-.07-.436-.129-.656-.18Z" transform="translate(76.257 -213.868)" fill="#fff148" style="mix-blend-mode: soft-light;isolation: isolate"/>
        <path id="Path_4480" data-name="Path 4480" d="M-69.458,222.442l-.4.4a8.148,8.148,0,0,0,1.135.334Z" transform="translate(76.257 -213.868)" fill="#fff148" style="mix-blend-mode: soft-light;isolation: isolate"/>
        <path id="Path_4481" data-name="Path 4481" d="M-61.453,217.443v-.006a5.817,5.817,0,0,0-2.948-.769c-.083,0-.171.006-.253.006h-.028l-.263.016c-.055,0-.109.01-.164.016l4.28,4.279a2.06,2.06,0,0,0,.8-1.653,1.517,1.517,0,0,0-.011-.17A2.393,2.393,0,0,0-61.453,217.443Z" transform="translate(76.257 -213.868)" fill="#fff148" style="mix-blend-mode: soft-light;isolation: isolate"/>
        <path id="Path_4482" data-name="Path 4482" d="M-74.8,219.8a6,6,0,0,0,3.5.791l-4.139-4.14a2.157,2.157,0,0,0-.812,1.531V218C-76.235,218.634-75.774,219.244-74.8,219.8Z" transform="translate(76.257 -213.868)" fill="#fff148" style="mix-blend-mode: soft-light;isolation: isolate"/>
      </g>
      <g id="Group_6199" data-name="Group 6199" transform="translate(0 0.158)">
        <path id="Path_4483" data-name="Path 4483" d="M-86.683,213.184c5.1-4.8,12.462-5.987,15.086-6.322A29.932,29.932,0,0,0-83.7,210.42c-8.581,4.954-8.581,12.987,0,17.941.309.178.626.348.949.514C-90.493,224.492-91.787,217.985-86.683,213.184Z" transform="translate(90.138 -206.862)" fill="#fbeb96"/>
        <path id="Path_4484" data-name="Path 4484" d="M-51.33,211.242c.652.487,7.879,6.115,3.2,12.608-4.9,6.794-16.6,8.5-24.887,7.911h0c7.108.925,14.858-.206,20.392-3.4C-44.505,223.672-44.076,216.226-51.33,211.242Z" transform="translate(90.138 -206.862)" fill="#fbeb96" style="mix-blend-mode: lighten;isolation: isolate"/>
      </g>
    </g>
    <g id="Group_6256" data-name="Group 6256" transform="translate(0 11.96)">
      <g id="Group_6231" data-name="Group 6231" transform="translate(0 4.114)">
        <path id="Path_4565" data-name="Path 4565" d="M-47.709,207.428a14.185,14.185,0,0,0-5.249-4.854c-8.581-4.954-22.494-4.954-31.075,0a14.185,14.185,0,0,0-5.249,4.854h-1.187v4.49h.016c.158,3.121,2.294,6.215,6.42,8.6,8.581,4.955,22.494,4.955,31.075,0,4.126-2.382,6.262-5.476,6.42-8.6h.016v-4.49Z" transform="translate(90.469 -198.858)" fill="#f6a526"/>
        <g id="Group_6229" data-name="Group 6229" transform="translate(25.066 9.866)">
          <path id="Path_4566" data-name="Path 4566" d="M-56.9,222.318V211.686h-3.6v11.675A30.129,30.129,0,0,0-56.9,222.318Z" transform="translate(65.403 -208.724)" fill="#fceb3b"/>
          <path id="Path_4567" data-name="Path 4567" d="M-54.383,221.265c.488-.236.966-.485,1.425-.75a15.333,15.333,0,0,0,4.495-3.761v-8.03h-5.92Z" transform="translate(65.403 -208.724)" fill="#fceb3b"/>
          <path id="Path_4568" data-name="Path 4568" d="M-62.669,223.775V216.4H-65.4v7.7C-64.482,224.03-63.57,223.918-62.669,223.775Z" transform="translate(65.403 -208.724)" fill="#fceb3b"/>
        </g>
        <g id="Group_6230" data-name="Group 6230" transform="translate(2.283 8.739)">
          <path id="Path_4569" data-name="Path 4569" d="M-73.69,223.873V211.607h-7.951v10.1A30.977,30.977,0,0,0-73.69,223.873Z" transform="translate(88.186 -207.597)" fill="#ee9016"/>
          <path id="Path_4570" data-name="Path 4570" d="M-84.033,207.6h-4.153v9.577a15.842,15.842,0,0,0,4.153,3.341h0Z" transform="translate(88.186 -207.597)" fill="#ee9016"/>
        </g>
      </g>
      <g id="Group_6232" data-name="Group 6232" transform="translate(0)">
        <ellipse id="Ellipse_580" data-name="Ellipse 580" cx="21.973" cy="12.686" rx="21.973" ry="12.686" fill="#f6a41b"/>
        <path id="Path_4571" data-name="Path 4571" d="M-53.436,199.289A30.625,30.625,0,0,0-68.5,195.7a30.608,30.608,0,0,0-15.056,3.59c-3.844,2.219-5.957,5.107-5.957,8.143s2.113,5.924,5.957,8.142A30.651,30.651,0,0,0-68.5,219.16a30.668,30.668,0,0,0,15.061-3.586c3.84-2.218,5.958-5.111,5.958-8.142S-49.6,201.508-53.436,199.289Zm-4.941,13.829A22.657,22.657,0,0,1-68.5,215.28a22.645,22.645,0,0,1-10.116-2.162c-2.876-1.475-4.46-3.494-4.46-5.686s1.584-4.215,4.46-5.689A22.673,22.673,0,0,1-68.5,199.584a22.684,22.684,0,0,1,10.12,2.159c2.873,1.474,4.457,3.5,4.457,5.689S-55.5,211.643-58.377,213.118Z" transform="translate(90.469 -194.744)" fill="#ffd422"/>
      </g>
      <g id="Group_6235" data-name="Group 6235" transform="translate(0 0)">
        <path id="Path_4572" data-name="Path 4572" d="M-58.377,201.743a22.684,22.684,0,0,0-10.12-2.159,22.673,22.673,0,0,0-10.116,2.159c-2.876,1.474-4.46,3.5-4.46,5.689s1.584,4.211,4.46,5.686A22.645,22.645,0,0,0-68.5,215.28a22.657,22.657,0,0,0,10.12-2.162c2.873-1.475,4.457-3.494,4.457-5.686S-55.5,203.217-58.377,201.743Z" transform="translate(90.469 -194.745)" fill="#e47f1a"/>
        <path id="Path_4573" data-name="Path 4573" d="M-52.958,198.46c-8.581-4.954-22.494-4.954-31.075,0s-8.581,12.987,0,17.941,22.494,4.954,31.075,0S-44.377,203.414-52.958,198.46Z" transform="translate(90.469 -194.745)" fill="#f6a41b"/>
        <g id="Group_6233" data-name="Group 6233" transform="translate(0.05 0.001)" opacity="0.2">
          <path id="Path_4574" data-name="Path 4574" d="M-78.243,218.8a33.654,33.654,0,0,0,4.893,1L-89.481,203.67a8.131,8.131,0,0,0-.938,2.954Z" transform="translate(90.419 -194.745)" fill="#fff148" style="mix-blend-mode: soft-light;isolation: isolate"/>
          <path id="Path_4575" data-name="Path 4575" d="M-87.279,200.848a12.724,12.724,0,0,0-.946,1l18.236,18.237q.985.039,1.972.026Z" transform="translate(90.419 -194.745)" fill="#fff148" style="mix-blend-mode: soft-light;isolation: isolate"/>
          <path id="Path_4576" data-name="Path 4576" d="M-66.441,194.8a37.247,37.247,0,0,0-9.652.727l21.653,21.652c.508-.245,1-.5,1.482-.778a15.494,15.494,0,0,0,4.438-3.68Z" transform="translate(90.419 -194.745)" fill="#fff148" style="mix-blend-mode: soft-light;isolation: isolate"/>
          <path id="Path_4577" data-name="Path 4577" d="M-83.524,198.181c-.171.092-.342.183-.509.279a18.826,18.826,0,0,0-1.963,1.3l20.252,20.252c1.219-.088,2.428-.234,3.613-.44Z" transform="translate(90.419 -194.745)" fill="#fff148" style="mix-blend-mode: soft-light;isolation: isolate"/>
          <path id="Path_4578" data-name="Path 4578" d="M-78.789,196.22a26.952,26.952,0,0,0-3.322,1.256l21.742,21.743a30.287,30.287,0,0,0,3.54-1.039Z" transform="translate(90.419 -194.745)" fill="#fff148" style="mix-blend-mode: soft-light;isolation: isolate"/>
          <path id="Path_4579" data-name="Path 4579" d="M-59.6,195.83q-1.216-.311-2.479-.533l14.991,14.991a7.972,7.972,0,0,0,.438-1.508Z" transform="translate(90.419 -194.745)" fill="#fff148" style="mix-blend-mode: soft-light;isolation: isolate"/>
        </g>
        <path id="Path_4580" data-name="Path 4580" d="M-53.436,199.289A30.625,30.625,0,0,0-68.5,195.7a30.608,30.608,0,0,0-15.056,3.59c-3.844,2.219-5.957,5.107-5.957,8.143s2.113,5.924,5.957,8.142A30.651,30.651,0,0,0-68.5,219.16a30.668,30.668,0,0,0,15.061-3.586c3.84-2.218,5.958-5.111,5.958-8.142S-49.6,201.508-53.436,199.289Zm-4.941,13.829A22.657,22.657,0,0,1-68.5,215.28a22.645,22.645,0,0,1-10.116-2.162c-2.876-1.475-4.46-3.494-4.46-5.686s1.584-4.215,4.46-5.689A22.673,22.673,0,0,1-68.5,199.584a22.684,22.684,0,0,1,10.12,2.159c2.873,1.474,4.457,3.5,4.457,5.689S-55.5,211.643-58.377,213.118Z" transform="translate(90.469 -194.745)" fill="#ffd422"/>
        <g id="Group_6234" data-name="Group 6234" transform="translate(0.959 0.954)">
          <path id="Path_4581" data-name="Path 4581" d="M-58.377,201.743a22.684,22.684,0,0,0-10.12-2.159,22.673,22.673,0,0,0-10.116,2.159c-2.876,1.474-4.46,3.5-4.46,5.689s1.584,4.211,4.46,5.686A22.645,22.645,0,0,0-68.5,215.28a22.657,22.657,0,0,0,10.12-2.162c2.873-1.475,4.457-3.494,4.457-5.686S-55.5,203.217-58.377,201.743Z" transform="translate(89.51 -195.699)" fill="#ed921a"/>
          <path id="Path_4582" data-name="Path 4582" d="M-53.436,199.289A30.625,30.625,0,0,0-68.5,195.7a30.608,30.608,0,0,0-15.056,3.59c-3.844,2.219-5.957,5.107-5.957,8.143s2.113,5.924,5.957,8.142A30.651,30.651,0,0,0-68.5,219.16a30.668,30.668,0,0,0,15.061-3.586c3.84-2.218,5.958-5.111,5.958-8.142S-49.6,201.508-53.436,199.289Zm-4.941,13.829A22.657,22.657,0,0,1-68.5,215.28a22.645,22.645,0,0,1-10.116-2.162c-2.876-1.475-4.46-3.494-4.46-5.686s1.584-4.215,4.46-5.689A22.673,22.673,0,0,1-68.5,199.584a22.684,22.684,0,0,1,10.12,2.159c2.873,1.474,4.457,3.5,4.457,5.689S-55.5,211.643-58.377,213.118Z" transform="translate(89.51 -195.699)" fill="#ffd422"/>
        </g>
      </g>
      <g id="Group_6236" data-name="Group 6236" transform="translate(0.959 0.956)">
        <path id="Path_4583" data-name="Path 4583" d="M-61.059,216.051h0a3.907,3.907,0,0,0-3.551-1.045,22.762,22.762,0,0,1-2.268.224c-.163.009-.326.016-.49.022l-.247.007c-.293.009-.585.022-.881.022a22.645,22.645,0,0,1-10.116-2.162c-2.876-1.475-4.46-3.494-4.46-5.686a4.765,4.765,0,0,1,.674-2.409l0-.007c.39-.853-1.1-2.114-2.491-2.474a3.339,3.339,0,0,0-3.59,1.288c-.028.048-.057.1-.084.144-.067.117-.125.234-.185.351a6.925,6.925,0,0,0-.764,3.107c0,3.031,2.113,5.924,5.957,8.142A30.651,30.651,0,0,0-68.5,219.16a36.435,36.435,0,0,0,5.983-.488C-61.024,218.227-60.358,216.956-61.059,216.051Z" transform="translate(89.51 -195.7)" fill="#fabd1f"/>
        <path id="Path_4584" data-name="Path 4584" d="M-75.929,198.809h0a3.909,3.909,0,0,0,3.552,1.045,22.733,22.733,0,0,1,2.268-.224c.162-.009.325-.016.489-.022l.248-.007c.292-.009.584-.022.88-.022a22.626,22.626,0,0,1,10.116,2.163c2.877,1.474,4.461,3.493,4.461,5.685a4.762,4.762,0,0,1-.674,2.409l0,.007c-.39.853,1.1,2.114,2.491,2.474a3.34,3.34,0,0,0,3.59-1.288c.028-.048.057-.1.084-.144.067-.116.124-.234.185-.351a6.925,6.925,0,0,0,.764-3.107c0-3.031-2.114-5.924-5.958-8.142A30.648,30.648,0,0,0-68.492,195.7a36.423,36.423,0,0,0-5.982.488C-75.964,196.633-76.631,197.9-75.929,198.809Z" transform="translate(89.51 -195.7)" fill="#fabd1f"/>
      </g>
      <g id="Group_6237" data-name="Group 6237" transform="translate(8.153 5.593)">
        <ellipse id="Ellipse_581" data-name="Ellipse 581" cx="13.82" cy="7.092" rx="13.82" ry="7.092" fill="#d76d12"/>
        <path id="Path_4585" data-name="Path 4585" d="M-58.723,204.294c-5.4-2.77-14.148-2.77-19.545,0-2.231,1.145-3.538,2.584-3.924,4.075.386,1.49,1.693,2.93,3.924,4.075,5.4,2.77,14.148,2.77,19.545,0,2.232-1.146,3.538-2.585,3.924-4.076C-55.185,206.879-56.492,205.439-58.723,204.294Z" transform="translate(82.316 -200.337)" fill="#f6a41b"/>
      </g>
      <g id="Group_6238" data-name="Group 6238" transform="translate(8.401 7.479)" opacity="0.5">
        <path id="Path_4586" data-name="Path 4586" d="M-58.723,204.294a22.52,22.52,0,0,0-10.658-2.056l10.349,10.35c.1-.049.21-.092.309-.143,2.232-1.146,3.538-2.585,3.924-4.076Z" transform="translate(82.068 -202.223)" fill="#fff148" style="mix-blend-mode: soft-light;isolation: isolate"/>
        <path id="Path_4587" data-name="Path 4587" d="M-77.683,204.022c-.2.09-.4.175-.585.272a10.8,10.8,0,0,0-1.939,1.257l8.808,8.808a26.774,26.774,0,0,0,4.184.131Z" transform="translate(82.068 -202.223)" fill="#fff148" style="mix-blend-mode: soft-light;isolation: isolate"/>
        <path id="Path_4588" data-name="Path 4588" d="M-81.381,206.745A4.806,4.806,0,0,0-82.068,208l4.973,4.974a19.148,19.148,0,0,0,2.837.891Z" transform="translate(82.068 -202.223)" fill="#fff148" style="mix-blend-mode: soft-light;isolation: isolate"/>
        <path id="Path_4589" data-name="Path 4589" d="M-72.49,202.519a21.388,21.388,0,0,0-3.685.894l10.906,10.906a22.608,22.608,0,0,0,3.791-.788Z" transform="translate(82.068 -202.223)" fill="#fff148" style="mix-blend-mode: soft-light;isolation: isolate"/>
      </g>
      <g id="Group_6243" data-name="Group 6243" transform="translate(2.283 11.464)">
        <g id="Group_6239" data-name="Group 6239" transform="translate(5.561 7.093)">
          <path id="Path_4590" data-name="Path 4590" d="M-79.078,214.355a1.151,1.151,0,0,0-.432-.409,2.853,2.853,0,0,0-2.58,0,1.151,1.151,0,0,0-.432.409h-.1v.336a.906.906,0,0,0,.535.745,2.853,2.853,0,0,0,2.58,0,.907.907,0,0,0,.534-.745v-.336Z" transform="translate(82.625 -213.302)" fill="#d76d12"/>
          <path id="Path_4591" data-name="Path 4591" d="M-82.09,213.61a.786.786,0,0,0,0,1.49,2.853,2.853,0,0,0,2.58,0,.787.787,0,0,0,0-1.49A2.853,2.853,0,0,0-82.09,213.61Z" transform="translate(82.625 -213.302)" fill="#ffd422"/>
          <path id="Path_4592" data-name="Path 4592" d="M-79.512,215.1a1.855,1.855,0,0,1-.411.177c.043-.019.086-.043.129-.067a.785.785,0,0,0,0-1.487,2.875,2.875,0,0,0-2.195-.167,2.863,2.863,0,0,1,2.477.052A.788.788,0,0,1-79.512,215.1Z" transform="translate(82.625 -213.302)" fill="#ffffa1" style="mix-blend-mode: hard-light;isolation: isolate"/>
        </g>
        <g id="Group_6240" data-name="Group 6240" transform="translate(1.482 3.867)">
          <path id="Path_4593" data-name="Path 4593" d="M-83.158,211.129a1.151,1.151,0,0,0-.432-.409,2.853,2.853,0,0,0-2.58,0,1.151,1.151,0,0,0-.432.409h-.1v.336a.907.907,0,0,0,.534.745,2.853,2.853,0,0,0,2.58,0,.906.906,0,0,0,.535-.745v-.336Z" transform="translate(86.704 -210.076)" fill="#d76d12"/>
          <path id="Path_4594" data-name="Path 4594" d="M-86.17,210.384a.787.787,0,0,0,0,1.49,2.853,2.853,0,0,0,2.58,0,.786.786,0,0,0,0-1.49A2.853,2.853,0,0,0-86.17,210.384Z" transform="translate(86.704 -210.076)" fill="#ffd422"/>
          <path id="Path_4595" data-name="Path 4595" d="M-83.592,211.876a1.854,1.854,0,0,1-.411.177,1.438,1.438,0,0,0,.129-.067.784.784,0,0,0,0-1.487,2.872,2.872,0,0,0-2.194-.167,2.861,2.861,0,0,1,2.476.052A.788.788,0,0,1-83.592,211.876Z" transform="translate(86.704 -210.076)" fill="#ffffa1" style="mix-blend-mode: hard-light;isolation: isolate"/>
        </g>
        <g id="Group_6241" data-name="Group 6241">
          <path id="Path_4596" data-name="Path 4596" d="M-84.64,207.262a1.139,1.139,0,0,0-.431-.409,2.847,2.847,0,0,0-2.58,0,1.143,1.143,0,0,0-.432.409h-.1v.335a.9.9,0,0,0,.535.745,2.847,2.847,0,0,0,2.58,0,.905.905,0,0,0,.534-.745v-.335Z" transform="translate(88.186 -206.209)" fill="#d76d12"/>
          <path id="Path_4597" data-name="Path 4597" d="M-87.651,206.517a.786.786,0,0,0,0,1.49,2.853,2.853,0,0,0,2.58,0,.787.787,0,0,0,0-1.49A2.853,2.853,0,0,0-87.651,206.517Z" transform="translate(88.186 -206.209)" fill="#ffd422"/>
          <path id="Path_4598" data-name="Path 4598" d="M-85.073,208.009a1.923,1.923,0,0,1-.411.177c.043-.019.086-.043.129-.067a.785.785,0,0,0,0-1.487,2.875,2.875,0,0,0-2.195-.168,2.866,2.866,0,0,1,2.477.053A.788.788,0,0,1-85.073,208.009Z" transform="translate(88.186 -206.209)" fill="#ffffa1" style="mix-blend-mode: hard-light;isolation: isolate"/>
        </g>
        <g id="Group_6242" data-name="Group 6242" transform="translate(11.559 9.242)">
          <path id="Path_4599" data-name="Path 4599" d="M-73.081,216.5a1.147,1.147,0,0,0-.431-.409,2.849,2.849,0,0,0-2.581,0,1.147,1.147,0,0,0-.431.409h-.1v.336a.9.9,0,0,0,.535.744,2.847,2.847,0,0,0,2.58,0,.905.905,0,0,0,.534-.744V216.5Z" transform="translate(76.627 -215.451)" fill="#d76d12"/>
          <path id="Path_4600" data-name="Path 4600" d="M-76.093,215.759a.786.786,0,0,0,0,1.489,2.847,2.847,0,0,0,2.58,0,.786.786,0,0,0,0-1.489A2.856,2.856,0,0,0-76.093,215.759Z" transform="translate(76.627 -215.451)" fill="#ffd422"/>
          <path id="Path_4601" data-name="Path 4601" d="M-73.514,217.251a1.875,1.875,0,0,1-.411.177c.043-.02.086-.043.129-.067a.784.784,0,0,0,0-1.487,2.871,2.871,0,0,0-2.195-.168,2.867,2.867,0,0,1,2.477.053A.788.788,0,0,1-73.514,217.251Z" transform="translate(76.627 -215.451)" fill="#ffffa1" style="mix-blend-mode: hard-light;isolation: isolate"/>
        </g>
      </g>
      <g id="Group_6248" data-name="Group 6248" transform="translate(26.442 2.224)">
        <g id="Group_6244" data-name="Group 6244" transform="translate(11.559 9.243)">
          <path id="Path_4602" data-name="Path 4602" d="M-48.922,207.264a1.151,1.151,0,0,0-.432-.409,2.853,2.853,0,0,0-2.58,0,1.151,1.151,0,0,0-.432.409h-.1v.336a.908.908,0,0,0,.534.745,2.853,2.853,0,0,0,2.58,0,.908.908,0,0,0,.534-.745v-.336Z" transform="translate(52.468 -206.211)" fill="#d76d12"/>
          <path id="Path_4603" data-name="Path 4603" d="M-51.934,206.519a.787.787,0,0,0,0,1.49,2.853,2.853,0,0,0,2.58,0,.786.786,0,0,0,0-1.49A2.853,2.853,0,0,0-51.934,206.519Z" transform="translate(52.468 -206.211)" fill="#ffe423"/>
          <path id="Path_4604" data-name="Path 4604" d="M-49.356,208.011a1.854,1.854,0,0,1-.411.177c.043-.019.086-.043.129-.067a.784.784,0,0,0,0-1.487,2.872,2.872,0,0,0-2.194-.167,2.861,2.861,0,0,1,2.476.052A.788.788,0,0,1-49.356,208.011Z" transform="translate(52.468 -206.211)" fill="#ffffa1" style="mix-blend-mode: hard-light;isolation: isolate"/>
        </g>
        <g id="Group_6245" data-name="Group 6245" transform="translate(10.077 5.375)">
          <path id="Path_4605" data-name="Path 4605" d="M-50.4,203.4a1.151,1.151,0,0,0-.432-.409,2.853,2.853,0,0,0-2.58,0,1.158,1.158,0,0,0-.432.409h-.1v.336a.908.908,0,0,0,.534.745,2.853,2.853,0,0,0,2.58,0,.907.907,0,0,0,.535-.745V203.4Z" transform="translate(53.95 -202.343)" fill="#d76d12"/>
          <path id="Path_4606" data-name="Path 4606" d="M-53.416,202.651a.787.787,0,0,0,0,1.49,2.853,2.853,0,0,0,2.58,0,.786.786,0,0,0,0-1.49A2.853,2.853,0,0,0-53.416,202.651Z" transform="translate(53.95 -202.343)" fill="#ffe423"/>
          <path id="Path_4607" data-name="Path 4607" d="M-50.838,204.143a1.835,1.835,0,0,1-.411.177,1.446,1.446,0,0,0,.129-.067.784.784,0,0,0,0-1.487,2.867,2.867,0,0,0-2.194-.167,2.861,2.861,0,0,1,2.476.052A.788.788,0,0,1-50.838,204.143Z" transform="translate(53.95 -202.343)" fill="#ffffa1" style="mix-blend-mode: hard-light;isolation: isolate"/>
        </g>
        <g id="Group_6246" data-name="Group 6246" transform="translate(5.997 2.15)">
          <path id="Path_4608" data-name="Path 4608" d="M-54.483,200.171a1.143,1.143,0,0,0-.432-.409,2.847,2.847,0,0,0-2.58,0,1.143,1.143,0,0,0-.432.409h-.1v.335a.907.907,0,0,0,.535.745,2.847,2.847,0,0,0,2.58,0,.905.905,0,0,0,.534-.745v-.335Z" transform="translate(58.03 -199.118)" fill="#d76d12"/>
          <path id="Path_4609" data-name="Path 4609" d="M-57.495,199.426a.786.786,0,0,0,0,1.49,2.853,2.853,0,0,0,2.58,0,.787.787,0,0,0,0-1.49A2.853,2.853,0,0,0-57.495,199.426Z" transform="translate(58.03 -199.118)" fill="#ffe423"/>
          <path id="Path_4610" data-name="Path 4610" d="M-54.917,200.918a1.9,1.9,0,0,1-.411.177c.043-.02.086-.043.129-.067a.784.784,0,0,0,0-1.487,2.875,2.875,0,0,0-2.195-.168,2.866,2.866,0,0,1,2.477.053A.788.788,0,0,1-54.917,200.918Z" transform="translate(58.03 -199.118)" fill="#ffffa1" style="mix-blend-mode: hard-light;isolation: isolate"/>
        </g>
        <g id="Group_6247" data-name="Group 6247">
          <path id="Path_4611" data-name="Path 4611" d="M-60.481,198.021a1.141,1.141,0,0,0-.432-.408,2.847,2.847,0,0,0-2.58,0,1.141,1.141,0,0,0-.432.408h-.1v.336a.907.907,0,0,0,.534.745,2.853,2.853,0,0,0,2.58,0,.907.907,0,0,0,.534-.745v-.336Z" transform="translate(64.027 -196.968)" fill="#d76d12"/>
          <path id="Path_4612" data-name="Path 4612" d="M-63.493,197.277a.786.786,0,0,0,0,1.489,2.847,2.847,0,0,0,2.58,0,.786.786,0,0,0,0-1.489A2.847,2.847,0,0,0-63.493,197.277Z" transform="translate(64.027 -196.968)" fill="#ffe423"/>
          <path id="Path_4613" data-name="Path 4613" d="M-60.915,198.769a1.9,1.9,0,0,1-.411.176,1.328,1.328,0,0,0,.129-.067.783.783,0,0,0,0-1.486,2.868,2.868,0,0,0-2.194-.168,2.864,2.864,0,0,1,2.476.053A.788.788,0,0,1-60.915,198.769Z" transform="translate(64.027 -196.968)" fill="#ffffa1" style="mix-blend-mode: hard-light;isolation: isolate"/>
        </g>
      </g>
      <g id="Group_6251" data-name="Group 6251" transform="translate(13.458 7.164)">
        <path id="Path_4614" data-name="Path 4614" d="M-60.356,209.21v-1.838a1.536,1.536,0,0,0-.011-.171,2.392,2.392,0,0,0-1.416-1.718v-.006a5.824,5.824,0,0,0-2.949-.769c-.083,0-.17.006-.253.006h-.027l-.264.016c-.077.006-.154.011-.23.022-.033.006-.066.006-.094.011-.06.006-.121.011-.175.022a11.815,11.815,0,0,0-1.434.3c-.225.06-.45.126-.67.2l.692-.73v-2.026a8.444,8.444,0,0,0-5.947.329l-1.642-.944-2.235,1.29,1.642.945a2.54,2.54,0,0,0-1.219,1.883v.017c.022.631.484,1.241,1.455,1.8,2.159,1.246,4.3.835,6.249.2,1.818-.593,3.141-1.29,4.19-.686.654.378.456.834-.274,1.257a3.611,3.611,0,0,1-3.125.181l-2.1,2.082a8.029,8.029,0,0,0,1.158.34,8.648,8.648,0,0,0,5.189-.626l1.642.95,2.213-1.279-.542-.316A1.582,1.582,0,0,0-60.356,209.21Z" transform="translate(77.011 -201.908)" fill="#fbbc1e"/>
        <path id="Path_4615" data-name="Path 4615" d="M-67.187,202.523v2.026l-.692.73-1.279,1.34v-2.109Z" transform="translate(77.011 -201.908)" fill="#fbbc1e"/>
        <path id="Path_4616" data-name="Path 4616" d="M-69.16,204.511v2.109h-4v-2.47S-69.461,203.582-69.16,204.511Z" transform="translate(77.011 -201.908)" fill="#ea7b1f"/>
        <path id="Path_4617" data-name="Path 4617" d="M-59.985,210.264v1.749l-2.216,1.279-1.64-.948a8.352,8.352,0,0,1-6.347.286v-1.751l1.007-1-1.007.278a6.482,6.482,0,0,1-4.945-.566c-.994-.572-1.454-1.2-1.453-1.846v-1.7l.18-.745-.605-.352V203.2l1.64.948a2.535,2.535,0,0,0-1.215,1.88v.02c.018.629.484,1.239,1.453,1.8,2.156,1.245,4.292.834,6.248.207,1.82-.594,3.145-1.292,4.194-.687.651.377.453.834-.277,1.258a3.639,3.639,0,0,1-3.125.181l-2.1,2.077a7.381,7.381,0,0,0,1.157.34,8.637,8.637,0,0,0,5.19-.624l1.64.948Z" transform="translate(77.011 -201.908)" fill="#d76d12"/>
        <g id="Group_6250" data-name="Group 6250">
          <g id="Group_6249" data-name="Group 6249">
            <path id="Path_4618" data-name="Path 4618" d="M-60.356,210.051l-1.268-.736a2.159,2.159,0,0,0,1.268-1.943,1.536,1.536,0,0,0-.011-.171,2.392,2.392,0,0,0-1.416-1.718v-.006a5.824,5.824,0,0,0-2.949-.769c-.083,0-.17.006-.253.006h-.027l-.264.016c-.077.006-.154.011-.23.022-.033.006-.066.006-.094.011-.06.006-.121.011-.175.022a11.815,11.815,0,0,0-1.434.3c-.225.06-.45.126-.67.2-.318.1-.631.2-.928.3-.12.043-.236.082-.351.12a10.783,10.783,0,0,1-1.966.56,2.034,2.034,0,0,1-.846-.033,1.764,1.764,0,0,1-.395-.164c-.494-.286-.571-.72.357-1.258a3.242,3.242,0,0,1,2.85-.3l1.971-1.988a8.444,8.444,0,0,0-5.947.329l-1.642-.944-2.235,1.29,1.642.945a2.54,2.54,0,0,0-1.219,1.883v.017c.022.631.484,1.241,1.455,1.8,2.159,1.246,4.3.835,6.249.2,1.818-.593,3.141-1.29,4.19-.686.654.378.456.834-.274,1.257a3.611,3.611,0,0,1-3.125.181l-2.1,2.082a8.029,8.029,0,0,0,1.158.34,8.648,8.648,0,0,0,5.189-.626l1.642.95,2.213-1.279Z" transform="translate(77.011 -201.908)" fill="#ffd422"/>
          </g>
        </g>
        <path id="Path_4619" data-name="Path 4619" d="M-63.842,210.595v1.749l1.641.948v-1.749Z" transform="translate(77.011 -201.908)" fill="#ea7b1f"/>
        <path id="Path_4620" data-name="Path 4620" d="M-62.2,211.542v1.749l2.215-1.279v-1.749Z" transform="translate(77.011 -201.908)" fill="#fbbc1e"/>
      </g>
      <g id="Group_6252" data-name="Group 6252" transform="translate(13.458 7.164)">
        <path id="Path_4621" data-name="Path 4621" d="M-77.011,203.2l2.212-1.016,1.665.67-1.642-.944Z" transform="translate(77.011 -201.908)" fill="#fbeb96"/>
        <path id="Path_4622" data-name="Path 4622" d="M-69.9,202.291a4.212,4.212,0,0,1,2.251.388l-1.509,1.832,1.971-1.988a8.288,8.288,0,0,0-5.234.065A12.731,12.731,0,0,1-69.9,202.291Z" transform="translate(77.011 -201.908)" fill="#fbeb96"/>
        <path id="Path_4623" data-name="Path 4623" d="M-60.5,206.72a2.943,2.943,0,0,0-1.284-1.237v-.006a5.824,5.824,0,0,0-2.949-.769c-.082,0-.17.006-.253.006h-.027l-.264.016c-.077.006-.154.011-.23.022-.033.006-.066.006-.094.011-.06.006-.121.011-.175.022a11.815,11.815,0,0,0-1.434.3c-.225.06-.45.126-.67.2-.318.1-.631.2-.928.3-.12.044-.236.083-.351.121a10.783,10.783,0,0,1-1.966.56,2.034,2.034,0,0,1-.846-.033,1.764,1.764,0,0,1-.395-.164.687.687,0,0,1-.342-.368h0a1.19,1.19,0,0,0,1.181.757,8.389,8.389,0,0,0,3.029-.666,10.466,10.466,0,0,1,4.657-.752C-62.408,205.267-60.925,205.949-60.5,206.72Z" transform="translate(77.011 -201.908)" fill="#fbeb96"/>
        <path id="Path_4624" data-name="Path 4624" d="M-61.624,209.316l1.125.948-1.7,1.279,2.215-1.279Z" transform="translate(77.011 -201.908)" fill="#fbeb96"/>
      </g>
      <g id="Group_6253" data-name="Group 6253" transform="translate(0.959 0.955)" opacity="0.3">
        <path id="Path_4625" data-name="Path 4625" d="M-83.054,207.018a4.71,4.71,0,0,1,.415-1.53l-3.967-3.967a11.742,11.742,0,0,0-.947,1Z" transform="translate(89.51 -195.699)" fill="#fff148" style="mix-blend-mode: soft-light;isolation: isolate"/>
        <path id="Path_4626" data-name="Path 4626" d="M-81.7,204.056a9.391,9.391,0,0,1,2.226-1.827l-3.343-3.343q-.374.2-.734.4a18.414,18.414,0,0,0-1.76,1.156Z" transform="translate(89.51 -195.699)" fill="#fff148" style="mix-blend-mode: soft-light;isolation: isolate"/>
        <path id="Path_4627" data-name="Path 4627" d="M-53.925,207.316c0,.039.005.077.005.116,0,2.192-1.584,4.211-4.457,5.686-.027.014-.058.025-.085.039l3.305,3.305c.6-.276,1.173-.571,1.721-.888a14.477,14.477,0,0,0,4.236-3.532Z" transform="translate(89.51 -195.699)" fill="#fff148" style="mix-blend-mode: soft-light;isolation: isolate"/>
        <path id="Path_4628" data-name="Path 4628" d="M-74.48,218.671l-14.292-14.292a6.9,6.9,0,0,0-.738,3.053c0,.035,0,.07,0,.1l9.789,9.789A30.406,30.406,0,0,0-74.48,218.671Z" transform="translate(89.51 -195.699)" fill="#fff148" style="mix-blend-mode: soft-light;isolation: isolate"/>
        <path id="Path_4629" data-name="Path 4629" d="M-71.826,199.793a27.256,27.256,0,0,1,3.329-.209,24.473,24.473,0,0,1,8.164,1.324l-5.083-5.082c-1.011-.084-2.04-.127-3.081-.127a35.963,35.963,0,0,0-6.789.635Z" transform="translate(89.51 -195.699)" fill="#fff148" style="mix-blend-mode: soft-light;isolation: isolate"/>
        <path id="Path_4630" data-name="Path 4630" d="M-66.5,215.2c-.656.047-1.318.08-1.992.08-.7,0-1.386-.035-2.066-.086l3.918,3.918a35.99,35.99,0,0,0,3.683-.369Z" transform="translate(89.51 -195.699)" fill="#fff148" style="mix-blend-mode: soft-light;isolation: isolate"/>
        <path id="Path_4631" data-name="Path 4631" d="M-60.872,214.137a22.324,22.324,0,0,1-3.719.859l3.423,3.423a29.827,29.827,0,0,0,3.594-.984Z" transform="translate(89.51 -195.699)" fill="#fff148" style="mix-blend-mode: soft-light;isolation: isolate"/>
        <path id="Path_4632" data-name="Path 4632" d="M-58.215,197.216q-1.284-.41-2.656-.71l13.04,13.04a6.733,6.733,0,0,0,.331-1.615Z" transform="translate(89.51 -195.699)" fill="#fff148" style="mix-blend-mode: soft-light;isolation: isolate"/>
        <path id="Path_4633" data-name="Path 4633" d="M-78.089,201.5a18.779,18.779,0,0,1,3.4-1.18l-3.331-3.331a26.68,26.68,0,0,0-3.367,1.212Z" transform="translate(89.51 -195.699)" fill="#fff148" style="mix-blend-mode: soft-light;isolation: isolate"/>
        <path id="Path_4634" data-name="Path 4634" d="M-73.278,214.848a22.173,22.173,0,0,1-2.575-.628L-71,219.074q1,.067,2.026.08Z" transform="translate(89.51 -195.699)" fill="#fff148" style="mix-blend-mode: soft-light;isolation: isolate"/>
      </g>
      <g id="Group_6254" data-name="Group 6254" transform="translate(13.881 7.164)" opacity="0.4">
        <path id="Path_4635" data-name="Path 4635" d="M-68.193,205.382c-.207.067-.418.134-.614.2-.12.044-.236.083-.351.121a10.783,10.783,0,0,1-1.966.56,2.091,2.091,0,0,1-.792-.024l2.087,2.086c.319-.083.635-.177.945-.277.975-.318,1.807-.664,2.531-.825Z" transform="translate(76.588 -201.908)" fill="#fff148" style="mix-blend-mode: soft-light;isolation: isolate"/>
        <path id="Path_4636" data-name="Path 4636" d="M-72.694,205.46a1.417,1.417,0,0,1,.686-.653,3.242,3.242,0,0,1,2.85-.3l.047-.048-2.168-2.168a9.552,9.552,0,0,0-1.855.557l-1.642-.944-.931.538Z" transform="translate(76.588 -201.908)" fill="#fff148" style="mix-blend-mode: soft-light;isolation: isolate"/>
        <path id="Path_4637" data-name="Path 4637" d="M-64.961,208.614l-.007,0a3.611,3.611,0,0,1-3.125.181l-.633.628,1.923,1.924a9.479,9.479,0,0,0,2.96-.756l1.642.95.109-.063Z" transform="translate(76.588 -201.908)" fill="#fff148" style="mix-blend-mode: soft-light;isolation: isolate"/>
        <path id="Path_4638" data-name="Path 4638" d="M-67.424,202.762l.237-.239c-.216-.07-.435-.129-.655-.18Z" transform="translate(76.588 -201.908)" fill="#fff148" style="mix-blend-mode: soft-light;isolation: isolate"/>
        <path id="Path_4639" data-name="Path 4639" d="M-69.789,210.482l-.4.4a8.094,8.094,0,0,0,1.134.334Z" transform="translate(76.588 -201.908)" fill="#fff148" style="mix-blend-mode: soft-light;isolation: isolate"/>
        <path id="Path_4640" data-name="Path 4640" d="M-61.783,205.483v-.006a5.824,5.824,0,0,0-2.949-.769c-.082,0-.17.006-.253.006h-.027l-.264.016c-.054,0-.109.01-.163.016l4.279,4.279a2.06,2.06,0,0,0,.8-1.653,1.536,1.536,0,0,0-.011-.171A2.392,2.392,0,0,0-61.783,205.483Z" transform="translate(76.588 -201.908)" fill="#fff148" style="mix-blend-mode: soft-light;isolation: isolate"/>
        <path id="Path_4641" data-name="Path 4641" d="M-75.133,207.844a6,6,0,0,0,3.5.79l-4.14-4.139a2.159,2.159,0,0,0-.812,1.531v.017C-76.566,206.674-76.1,207.284-75.133,207.844Z" transform="translate(76.588 -201.908)" fill="#fff148" style="mix-blend-mode: soft-light;isolation: isolate"/>
      </g>
      <g id="Group_6255" data-name="Group 6255" transform="translate(0 0.158)">
        <path id="Path_4642" data-name="Path 4642" d="M-87.014,201.224c5.1-4.8,12.463-5.987,15.086-6.322a29.937,29.937,0,0,0-12.1,3.558c-8.581,4.954-8.581,12.987,0,17.941.309.178.627.348.949.514C-90.824,212.532-92.118,206.024-87.014,201.224Z" transform="translate(90.469 -194.902)" fill="#fbeb96"/>
        <path id="Path_4643" data-name="Path 4643" d="M-51.661,199.282c.652.487,7.879,6.115,3.2,12.608-4.9,6.794-16.6,8.5-24.887,7.911h0c7.109.926,14.858-.205,20.392-3.4C-44.836,211.712-44.407,204.266-51.661,199.282Z" transform="translate(90.469 -194.902)" fill="#fbeb96" style="mix-blend-mode: lighten;isolation: isolate"/>
      </g>
    </g>
    <g id="Group_6312" data-name="Group 6312">
      <g id="Group_6287" data-name="Group 6287" transform="translate(0 4.114)">
        <path id="Path_4722" data-name="Path 4722" d="M-47.709,195.469a14.169,14.169,0,0,0-5.249-4.854c-8.581-4.955-22.494-4.955-31.075,0a14.169,14.169,0,0,0-5.249,4.854h-1.187v4.489h.016c.158,3.121,2.294,6.215,6.42,8.6,8.581,4.954,22.494,4.954,31.075,0,4.126-2.383,6.262-5.477,6.42-8.6h.016v-4.489Z" transform="translate(90.469 -186.899)" fill="#f6a526"/>
        <g id="Group_6285" data-name="Group 6285" transform="translate(25.066 9.865)">
          <path id="Path_4723" data-name="Path 4723" d="M-56.9,210.358V199.726h-3.6V211.4A30.319,30.319,0,0,0-56.9,210.358Z" transform="translate(65.403 -196.764)" fill="#fceb3b"/>
          <path id="Path_4724" data-name="Path 4724" d="M-54.383,209.3c.488-.236.966-.484,1.425-.749a15.335,15.335,0,0,0,4.495-3.762v-8.03h-5.92Z" transform="translate(65.403 -196.764)" fill="#fceb3b"/>
          <path id="Path_4725" data-name="Path 4725" d="M-62.669,211.816v-7.375H-65.4v7.7C-64.482,212.07-63.57,211.958-62.669,211.816Z" transform="translate(65.403 -196.764)" fill="#fceb3b"/>
        </g>
        <g id="Group_6286" data-name="Group 6286" transform="translate(2.283 8.739)">
          <path id="Path_4726" data-name="Path 4726" d="M-73.69,211.913V199.647h-7.951v10.1A30.936,30.936,0,0,0-73.69,211.913Z" transform="translate(88.186 -195.638)" fill="#ee9016"/>
          <path id="Path_4727" data-name="Path 4727" d="M-84.033,195.638h-4.153v9.577a15.883,15.883,0,0,0,4.153,3.341h0Z" transform="translate(88.186 -195.638)" fill="#ee9016"/>
        </g>
      </g>
      <g id="Group_6288" data-name="Group 6288" transform="translate(0)">
        <ellipse id="Ellipse_585" data-name="Ellipse 585" cx="21.973" cy="12.686" rx="21.973" ry="12.686" fill="#f6a41b"/>
        <path id="Path_4728" data-name="Path 4728" d="M-53.436,187.33A30.625,30.625,0,0,0-68.5,183.739a30.608,30.608,0,0,0-15.056,3.591c-3.844,2.218-5.957,5.106-5.957,8.142s2.113,5.924,5.957,8.143A30.662,30.662,0,0,0-68.5,207.2a30.679,30.679,0,0,0,15.061-3.585c3.84-2.219,5.958-5.112,5.958-8.143S-49.6,189.548-53.436,187.33Zm-4.941,13.828A22.644,22.644,0,0,1-68.5,203.32a22.632,22.632,0,0,1-10.116-2.162c-2.876-1.475-4.46-3.493-4.46-5.686s1.584-4.215,4.46-5.689A22.686,22.686,0,0,1-68.5,187.624a22.7,22.7,0,0,1,10.12,2.159c2.873,1.474,4.457,3.5,4.457,5.689S-55.5,199.683-58.377,201.158Z" transform="translate(90.469 -182.785)" fill="#ffd422"/>
      </g>
      <g id="Group_6291" data-name="Group 6291" transform="translate(0)">
        <path id="Path_4729" data-name="Path 4729" d="M-58.377,189.783a22.7,22.7,0,0,0-10.12-2.159,22.686,22.686,0,0,0-10.116,2.159c-2.876,1.474-4.46,3.5-4.46,5.689s1.584,4.211,4.46,5.686A22.632,22.632,0,0,0-68.5,203.32a22.644,22.644,0,0,0,10.12-2.162c2.873-1.475,4.457-3.493,4.457-5.686S-55.5,191.257-58.377,189.783Z" transform="translate(90.469 -182.785)" fill="#e47f1a"/>
        <path id="Path_4730" data-name="Path 4730" d="M-52.958,186.5c-8.581-4.954-22.494-4.954-31.075,0s-8.581,12.987,0,17.941,22.494,4.954,31.075,0S-44.377,191.454-52.958,186.5Z" transform="translate(90.469 -182.785)" fill="#f6a41b"/>
        <g id="Group_6289" data-name="Group 6289" transform="translate(0.05 0.001)" opacity="0.2">
          <path id="Path_4731" data-name="Path 4731" d="M-78.243,206.84a33.653,33.653,0,0,0,4.893,1l-16.131-16.131a8.12,8.12,0,0,0-.938,2.953Z" transform="translate(90.419 -182.785)" fill="#fff148" style="mix-blend-mode: soft-light;isolation: isolate"/>
          <path id="Path_4732" data-name="Path 4732" d="M-87.279,188.888a12.73,12.73,0,0,0-.946,1l18.236,18.237q.985.039,1.972.026Z" transform="translate(90.419 -182.785)" fill="#fff148" style="mix-blend-mode: soft-light;isolation: isolate"/>
          <path id="Path_4733" data-name="Path 4733" d="M-66.441,182.84a37.246,37.246,0,0,0-9.652.727L-54.44,205.22c.508-.245,1-.5,1.482-.779a15.494,15.494,0,0,0,4.438-3.68Z" transform="translate(90.419 -182.785)" fill="#fff148" style="mix-blend-mode: soft-light;isolation: isolate"/>
          <path id="Path_4734" data-name="Path 4734" d="M-83.524,186.221c-.171.092-.342.183-.509.279A18.826,18.826,0,0,0-86,187.8l20.252,20.252c1.219-.088,2.428-.234,3.613-.44Z" transform="translate(90.419 -182.785)" fill="#fff148" style="mix-blend-mode: soft-light;isolation: isolate"/>
          <path id="Path_4735" data-name="Path 4735" d="M-78.789,184.26a26.95,26.95,0,0,0-3.322,1.256l21.742,21.743a30.29,30.29,0,0,0,3.54-1.039Z" transform="translate(90.419 -182.785)" fill="#fff148" style="mix-blend-mode: soft-light;isolation: isolate"/>
          <path id="Path_4736" data-name="Path 4736" d="M-59.6,183.871q-1.216-.312-2.479-.534l14.991,14.991a7.972,7.972,0,0,0,.438-1.508Z" transform="translate(90.419 -182.785)" fill="#fff148" style="mix-blend-mode: soft-light;isolation: isolate"/>
        </g>
        <path id="Path_4737" data-name="Path 4737" d="M-53.436,187.33A30.625,30.625,0,0,0-68.5,183.739a30.608,30.608,0,0,0-15.056,3.591c-3.844,2.218-5.957,5.106-5.957,8.142s2.113,5.924,5.957,8.143A30.662,30.662,0,0,0-68.5,207.2a30.679,30.679,0,0,0,15.061-3.585c3.84-2.219,5.958-5.112,5.958-8.143S-49.6,189.548-53.436,187.33Zm-4.941,13.828A22.644,22.644,0,0,1-68.5,203.32a22.632,22.632,0,0,1-10.116-2.162c-2.876-1.475-4.46-3.493-4.46-5.686s1.584-4.215,4.46-5.689A22.686,22.686,0,0,1-68.5,187.624a22.7,22.7,0,0,1,10.12,2.159c2.873,1.474,4.457,3.5,4.457,5.689S-55.5,199.683-58.377,201.158Z" transform="translate(90.469 -182.785)" fill="#ffd422"/>
        <g id="Group_6290" data-name="Group 6290" transform="translate(0.959 0.954)">
          <path id="Path_4738" data-name="Path 4738" d="M-58.377,189.783a22.7,22.7,0,0,0-10.12-2.159,22.686,22.686,0,0,0-10.116,2.159c-2.876,1.474-4.46,3.5-4.46,5.689s1.584,4.211,4.46,5.686A22.632,22.632,0,0,0-68.5,203.32a22.644,22.644,0,0,0,10.12-2.162c2.873-1.475,4.457-3.493,4.457-5.686S-55.5,191.257-58.377,189.783Z" transform="translate(89.51 -183.739)" fill="#ed921a"/>
          <path id="Path_4739" data-name="Path 4739" d="M-53.436,187.33A30.625,30.625,0,0,0-68.5,183.739a30.608,30.608,0,0,0-15.056,3.591c-3.844,2.218-5.957,5.106-5.957,8.142s2.113,5.924,5.957,8.143A30.662,30.662,0,0,0-68.5,207.2a30.679,30.679,0,0,0,15.061-3.585c3.84-2.219,5.958-5.112,5.958-8.143S-49.6,189.548-53.436,187.33Zm-4.941,13.828A22.644,22.644,0,0,1-68.5,203.32a22.632,22.632,0,0,1-10.116-2.162c-2.876-1.475-4.46-3.493-4.46-5.686s1.584-4.215,4.46-5.689A22.686,22.686,0,0,1-68.5,187.624a22.7,22.7,0,0,1,10.12,2.159c2.873,1.474,4.457,3.5,4.457,5.689S-55.5,199.683-58.377,201.158Z" transform="translate(89.51 -183.739)" fill="#ffd422"/>
        </g>
      </g>
      <g id="Group_6292" data-name="Group 6292" transform="translate(0.959 0.956)">
        <path id="Path_4740" data-name="Path 4740" d="M-61.059,204.091h0a3.907,3.907,0,0,0-3.551-1.046,22.762,22.762,0,0,1-2.268.224c-.163.009-.326.016-.49.023l-.247.006c-.293.009-.585.022-.881.022a22.632,22.632,0,0,1-10.116-2.162c-2.876-1.475-4.46-3.493-4.46-5.686a4.765,4.765,0,0,1,.674-2.409l0-.007c.39-.852-1.1-2.113-2.491-2.473a3.337,3.337,0,0,0-3.59,1.287c-.028.048-.057.1-.084.144-.067.117-.125.234-.185.351a6.925,6.925,0,0,0-.764,3.107c0,3.031,2.113,5.924,5.957,8.143A30.662,30.662,0,0,0-68.5,207.2a36.437,36.437,0,0,0,5.983-.488C-61.024,206.268-60.358,205-61.059,204.091Z" transform="translate(89.51 -183.74)" fill="#fabd1f"/>
        <path id="Path_4741" data-name="Path 4741" d="M-75.929,186.849h0a3.912,3.912,0,0,0,3.552,1.046,22.733,22.733,0,0,1,2.268-.224c.162-.01.325-.017.489-.023.083,0,.165-.005.248-.006.292-.01.584-.022.88-.022a22.626,22.626,0,0,1,10.116,2.162c2.877,1.474,4.461,3.493,4.461,5.685a4.762,4.762,0,0,1-.674,2.409l0,.007c-.39.853,1.1,2.114,2.491,2.474a3.34,3.34,0,0,0,3.59-1.288c.028-.048.057-.1.084-.144.067-.116.124-.234.185-.351a6.922,6.922,0,0,0,.764-3.107c0-3.031-2.114-5.924-5.958-8.142a30.648,30.648,0,0,0-15.056-3.586,36.313,36.313,0,0,0-5.982.489C-75.964,184.673-76.631,185.944-75.929,186.849Z" transform="translate(89.51 -183.74)" fill="#fabd1f"/>
      </g>
      <g id="Group_6293" data-name="Group 6293" transform="translate(8.153 5.593)">
        <ellipse id="Ellipse_586" data-name="Ellipse 586" cx="13.82" cy="7.092" rx="13.82" ry="7.092" fill="#d76d12"/>
        <path id="Path_4742" data-name="Path 4742" d="M-58.723,192.334c-5.4-2.77-14.148-2.77-19.545,0-2.231,1.145-3.538,2.585-3.924,4.075.386,1.491,1.693,2.93,3.924,4.076,5.4,2.769,14.148,2.769,19.545,0,2.232-1.145,3.538-2.585,3.924-4.076C-55.185,194.919-56.492,193.479-58.723,192.334Z" transform="translate(82.316 -188.377)" fill="#f6a41b"/>
      </g>
      <g id="Group_6294" data-name="Group 6294" transform="translate(8.401 7.479)" opacity="0.5">
        <path id="Path_4743" data-name="Path 4743" d="M-58.723,192.334a22.52,22.52,0,0,0-10.658-2.056l10.349,10.35c.1-.049.21-.092.309-.143,2.232-1.145,3.538-2.585,3.924-4.076Z" transform="translate(82.068 -190.263)" fill="#fff148" style="mix-blend-mode: soft-light;isolation: isolate"/>
        <path id="Path_4744" data-name="Path 4744" d="M-77.683,192.062c-.2.09-.4.175-.585.272a10.805,10.805,0,0,0-1.939,1.257L-71.4,202.4a26.9,26.9,0,0,0,4.184.132Z" transform="translate(82.068 -190.263)" fill="#fff148" style="mix-blend-mode: soft-light;isolation: isolate"/>
        <path id="Path_4745" data-name="Path 4745" d="M-81.381,194.785a4.806,4.806,0,0,0-.687,1.259l4.973,4.974a19.031,19.031,0,0,0,2.837.891Z" transform="translate(82.068 -190.263)" fill="#fff148" style="mix-blend-mode: soft-light;isolation: isolate"/>
        <path id="Path_4746" data-name="Path 4746" d="M-72.49,190.559a21.479,21.479,0,0,0-3.685.894l10.906,10.906a22.705,22.705,0,0,0,3.791-.787Z" transform="translate(82.068 -190.263)" fill="#fff148" style="mix-blend-mode: soft-light;isolation: isolate"/>
      </g>
      <g id="Group_6299" data-name="Group 6299" transform="translate(2.283 11.464)">
        <g id="Group_6295" data-name="Group 6295" transform="translate(5.561 7.093)">
          <path id="Path_4747" data-name="Path 4747" d="M-79.078,202.4a1.151,1.151,0,0,0-.432-.409,2.853,2.853,0,0,0-2.58,0,1.151,1.151,0,0,0-.432.409h-.1v.336a.906.906,0,0,0,.535.745,2.853,2.853,0,0,0,2.58,0,.907.907,0,0,0,.534-.745V202.4Z" transform="translate(82.625 -201.342)" fill="#d76d12"/>
          <path id="Path_4748" data-name="Path 4748" d="M-82.09,201.65a.786.786,0,0,0,0,1.49,2.853,2.853,0,0,0,2.58,0,.786.786,0,0,0,0-1.489A2.85,2.85,0,0,0-82.09,201.65Z" transform="translate(82.625 -201.342)" fill="#ffd422"/>
          <path id="Path_4749" data-name="Path 4749" d="M-79.512,203.142a1.854,1.854,0,0,1-.411.177c.043-.019.086-.043.129-.067a.785.785,0,0,0,0-1.487,2.875,2.875,0,0,0-2.195-.167,2.86,2.86,0,0,1,2.477.053A.787.787,0,0,1-79.512,203.142Z" transform="translate(82.625 -201.342)" fill="#ffffa1" style="mix-blend-mode: hard-light;isolation: isolate"/>
        </g>
        <g id="Group_6296" data-name="Group 6296" transform="translate(1.482 3.867)">
          <path id="Path_4750" data-name="Path 4750" d="M-83.158,199.169a1.151,1.151,0,0,0-.432-.409,2.853,2.853,0,0,0-2.58,0,1.151,1.151,0,0,0-.432.409h-.1v.336a.907.907,0,0,0,.534.745,2.853,2.853,0,0,0,2.58,0,.906.906,0,0,0,.535-.745v-.336Z" transform="translate(86.704 -198.116)" fill="#d76d12"/>
          <path id="Path_4751" data-name="Path 4751" d="M-86.17,198.425a.786.786,0,0,0,0,1.489,2.853,2.853,0,0,0,2.58,0,.786.786,0,0,0,0-1.489A2.847,2.847,0,0,0-86.17,198.425Z" transform="translate(86.704 -198.116)" fill="#ffd422"/>
          <path id="Path_4752" data-name="Path 4752" d="M-83.592,199.916a1.854,1.854,0,0,1-.411.177,1.219,1.219,0,0,0,.129-.067.784.784,0,0,0,0-1.487,2.872,2.872,0,0,0-2.194-.167,2.861,2.861,0,0,1,2.476.053A.787.787,0,0,1-83.592,199.916Z" transform="translate(86.704 -198.116)" fill="#ffffa1" style="mix-blend-mode: hard-light;isolation: isolate"/>
        </g>
        <g id="Group_6297" data-name="Group 6297">
          <path id="Path_4753" data-name="Path 4753" d="M-84.64,195.3a1.147,1.147,0,0,0-.431-.409,2.847,2.847,0,0,0-2.58,0,1.15,1.15,0,0,0-.432.409h-.1v.336a.9.9,0,0,0,.535.744,2.847,2.847,0,0,0,2.58,0,.905.905,0,0,0,.534-.744V195.3Z" transform="translate(88.186 -194.249)" fill="#d76d12"/>
          <path id="Path_4754" data-name="Path 4754" d="M-87.651,194.557a.786.786,0,0,0,0,1.49,2.853,2.853,0,0,0,2.58,0,.787.787,0,0,0,0-1.49A2.853,2.853,0,0,0-87.651,194.557Z" transform="translate(88.186 -194.249)" fill="#ffd422"/>
          <path id="Path_4755" data-name="Path 4755" d="M-85.073,196.049a1.874,1.874,0,0,1-.411.177c.043-.019.086-.043.129-.067a.785.785,0,0,0,0-1.487,2.87,2.87,0,0,0-2.195-.167,2.863,2.863,0,0,1,2.477.052A.788.788,0,0,1-85.073,196.049Z" transform="translate(88.186 -194.249)" fill="#ffffa1" style="mix-blend-mode: hard-light;isolation: isolate"/>
        </g>
        <g id="Group_6298" data-name="Group 6298" transform="translate(11.559 9.242)">
          <path id="Path_4756" data-name="Path 4756" d="M-73.081,204.544a1.155,1.155,0,0,0-.431-.409,2.856,2.856,0,0,0-2.581,0,1.155,1.155,0,0,0-.431.409h-.1v.336a.9.9,0,0,0,.535.744,2.847,2.847,0,0,0,2.58,0,.905.905,0,0,0,.534-.744v-.336Z" transform="translate(76.627 -203.491)" fill="#d76d12"/>
          <path id="Path_4757" data-name="Path 4757" d="M-76.093,203.8a.787.787,0,0,0,0,1.49,2.853,2.853,0,0,0,2.58,0,.787.787,0,0,0,0-1.49A2.856,2.856,0,0,0-76.093,203.8Z" transform="translate(76.627 -203.491)" fill="#ffd422"/>
          <path id="Path_4758" data-name="Path 4758" d="M-73.514,205.291a1.874,1.874,0,0,1-.411.177c.043-.019.086-.043.129-.067a.784.784,0,0,0,0-1.487,2.87,2.87,0,0,0-2.195-.167,2.863,2.863,0,0,1,2.477.052A.788.788,0,0,1-73.514,205.291Z" transform="translate(76.627 -203.491)" fill="#ffffa1" style="mix-blend-mode: hard-light;isolation: isolate"/>
        </g>
      </g>
      <g id="Group_6304" data-name="Group 6304" transform="translate(26.442 2.224)">
        <g id="Group_6300" data-name="Group 6300" transform="translate(11.559 9.242)">
          <path id="Path_4759" data-name="Path 4759" d="M-48.922,195.3a1.151,1.151,0,0,0-.432-.409,2.853,2.853,0,0,0-2.58,0,1.151,1.151,0,0,0-.432.409h-.1v.336a.907.907,0,0,0,.534.745,2.853,2.853,0,0,0,2.58,0,.907.907,0,0,0,.534-.745V195.3Z" transform="translate(52.468 -194.251)" fill="#d76d12"/>
          <path id="Path_4760" data-name="Path 4760" d="M-51.934,194.56a.786.786,0,0,0,0,1.489,2.853,2.853,0,0,0,2.58,0,.786.786,0,0,0,0-1.489A2.847,2.847,0,0,0-51.934,194.56Z" transform="translate(52.468 -194.251)" fill="#ffe423"/>
          <path id="Path_4761" data-name="Path 4761" d="M-49.356,196.051a1.854,1.854,0,0,1-.411.177c.043-.019.086-.043.129-.067a.784.784,0,0,0,0-1.487,2.872,2.872,0,0,0-2.194-.167,2.857,2.857,0,0,1,2.476.053A.787.787,0,0,1-49.356,196.051Z" transform="translate(52.468 -194.251)" fill="#ffffa1" style="mix-blend-mode: hard-light;isolation: isolate"/>
        </g>
        <g id="Group_6301" data-name="Group 6301" transform="translate(10.077 5.374)">
          <path id="Path_4762" data-name="Path 4762" d="M-50.4,191.436a1.151,1.151,0,0,0-.432-.409,2.853,2.853,0,0,0-2.58,0,1.158,1.158,0,0,0-.432.409h-.1v.336a.907.907,0,0,0,.534.745,2.853,2.853,0,0,0,2.58,0,.906.906,0,0,0,.535-.745v-.336Z" transform="translate(53.95 -190.383)" fill="#d76d12"/>
          <path id="Path_4763" data-name="Path 4763" d="M-53.416,190.691a.787.787,0,0,0,0,1.49,2.853,2.853,0,0,0,2.58,0,.786.786,0,0,0,0-1.49A2.853,2.853,0,0,0-53.416,190.691Z" transform="translate(53.95 -190.383)" fill="#ffe423"/>
          <path id="Path_4764" data-name="Path 4764" d="M-50.838,192.183a1.833,1.833,0,0,1-.411.177,1.219,1.219,0,0,0,.129-.067.784.784,0,0,0,0-1.487,2.872,2.872,0,0,0-2.194-.167,2.864,2.864,0,0,1,2.476.052A.788.788,0,0,1-50.838,192.183Z" transform="translate(53.95 -190.383)" fill="#ffffa1" style="mix-blend-mode: hard-light;isolation: isolate"/>
        </g>
        <g id="Group_6302" data-name="Group 6302" transform="translate(5.997 2.149)">
          <path id="Path_4765" data-name="Path 4765" d="M-54.483,188.211a1.151,1.151,0,0,0-.432-.409,2.853,2.853,0,0,0-2.58,0,1.151,1.151,0,0,0-.432.409h-.1v.336a.907.907,0,0,0,.535.744,2.847,2.847,0,0,0,2.58,0,.905.905,0,0,0,.534-.744v-.336Z" transform="translate(58.03 -187.158)" fill="#d76d12"/>
          <path id="Path_4766" data-name="Path 4766" d="M-57.495,187.466a.786.786,0,0,0,0,1.49,2.853,2.853,0,0,0,2.58,0,.787.787,0,0,0,0-1.49A2.853,2.853,0,0,0-57.495,187.466Z" transform="translate(58.03 -187.158)" fill="#ffe423"/>
          <path id="Path_4767" data-name="Path 4767" d="M-54.917,188.958a1.854,1.854,0,0,1-.411.177c.043-.019.086-.043.129-.067a.784.784,0,0,0,0-1.487,2.875,2.875,0,0,0-2.195-.168,2.866,2.866,0,0,1,2.477.053A.788.788,0,0,1-54.917,188.958Z" transform="translate(58.03 -187.158)" fill="#ffffa1" style="mix-blend-mode: hard-light;isolation: isolate"/>
        </g>
        <g id="Group_6303" data-name="Group 6303">
          <path id="Path_4768" data-name="Path 4768" d="M-60.481,186.062a1.143,1.143,0,0,0-.432-.409,2.847,2.847,0,0,0-2.58,0,1.143,1.143,0,0,0-.432.409h-.1v.336a.905.905,0,0,0,.534.744,2.847,2.847,0,0,0,2.58,0,.905.905,0,0,0,.534-.744v-.336Z" transform="translate(64.027 -185.009)" fill="#d76d12"/>
          <path id="Path_4769" data-name="Path 4769" d="M-63.493,185.317a.786.786,0,0,0,0,1.489,2.847,2.847,0,0,0,2.58,0,.786.786,0,0,0,0-1.489A2.853,2.853,0,0,0-63.493,185.317Z" transform="translate(64.027 -185.009)" fill="#ffe423"/>
          <path id="Path_4770" data-name="Path 4770" d="M-60.915,186.809a1.854,1.854,0,0,1-.411.177c.043-.019.086-.043.129-.067a.784.784,0,0,0,0-1.487,2.867,2.867,0,0,0-2.194-.168,2.864,2.864,0,0,1,2.476.053A.788.788,0,0,1-60.915,186.809Z" transform="translate(64.027 -185.009)" fill="#ffffa1" style="mix-blend-mode: hard-light;isolation: isolate"/>
        </g>
      </g>
      <g id="Group_6307" data-name="Group 6307" transform="translate(13.458 7.163)">
        <path id="Path_4771" data-name="Path 4771" d="M-60.356,197.25v-1.838a1.517,1.517,0,0,0-.011-.17,2.391,2.391,0,0,0-1.416-1.719v-.006a5.824,5.824,0,0,0-2.949-.769c-.083,0-.17.006-.253.006h-.027l-.264.016c-.077.006-.154.012-.23.022-.033.006-.066.006-.094.012a1.553,1.553,0,0,0-.175.021,11.82,11.82,0,0,0-1.434.3c-.225.06-.45.126-.67.2l.692-.731v-2.026a8.444,8.444,0,0,0-5.947.329l-1.642-.944-2.235,1.29,1.642.945a2.542,2.542,0,0,0-1.219,1.883v.017c.022.631.484,1.241,1.455,1.8,2.159,1.247,4.3.835,6.249.2,1.818-.593,3.141-1.29,4.19-.686.654.379.456.834-.274,1.257a3.608,3.608,0,0,1-3.125.182l-2.1,2.081a8.033,8.033,0,0,0,1.158.34,8.648,8.648,0,0,0,5.189-.626l1.642.95,2.213-1.279-.542-.316A1.583,1.583,0,0,0-60.356,197.25Z" transform="translate(77.011 -189.948)" fill="#fbbc1e"/>
        <path id="Path_4772" data-name="Path 4772" d="M-67.187,190.563v2.026l-.692.73-1.279,1.34v-2.109Z" transform="translate(77.011 -189.948)" fill="#fbbc1e"/>
        <path id="Path_4773" data-name="Path 4773" d="M-69.16,192.551v2.109h-4v-2.47S-69.461,191.622-69.16,192.551Z" transform="translate(77.011 -189.948)" fill="#ea7b1f"/>
        <path id="Path_4774" data-name="Path 4774" d="M-59.985,198.3v1.749l-2.216,1.279-1.64-.948a8.347,8.347,0,0,1-6.347.286v-1.751l1.007-1-1.007.277a6.481,6.481,0,0,1-4.945-.565c-.994-.573-1.454-1.2-1.453-1.846v-1.7l.18-.745-.605-.352v-1.751l1.64.948a2.536,2.536,0,0,0-1.215,1.88v.02c.018.629.484,1.239,1.453,1.8,2.156,1.244,4.292.834,6.248.206,1.82-.594,3.145-1.291,4.194-.687.651.377.453.835-.277,1.258a3.639,3.639,0,0,1-3.125.181l-2.1,2.077a7.384,7.384,0,0,0,1.157.34,8.629,8.629,0,0,0,5.19-.624l1.64.948Z" transform="translate(77.011 -189.948)" fill="#d76d12"/>
        <g id="Group_6306" data-name="Group 6306">
          <g id="Group_6305" data-name="Group 6305">
            <path id="Path_4775" data-name="Path 4775" d="M-60.356,198.092l-1.268-.736a2.161,2.161,0,0,0,1.268-1.944,1.517,1.517,0,0,0-.011-.17,2.391,2.391,0,0,0-1.416-1.719v-.006a5.824,5.824,0,0,0-2.949-.769c-.083,0-.17.006-.253.006h-.027l-.264.016c-.077.006-.154.012-.23.022-.033.006-.066.006-.094.012a1.553,1.553,0,0,0-.175.021,11.82,11.82,0,0,0-1.434.3c-.225.06-.45.126-.67.2-.318.1-.631.2-.928.3-.12.044-.236.082-.351.12a10.884,10.884,0,0,1-1.966.561,2.068,2.068,0,0,1-.846-.033,1.815,1.815,0,0,1-.395-.165c-.494-.286-.571-.719.357-1.258a3.242,3.242,0,0,1,2.85-.3l1.971-1.988a8.444,8.444,0,0,0-5.947.329l-1.642-.944-2.235,1.29,1.642.945a2.542,2.542,0,0,0-1.219,1.883v.017c.022.631.484,1.241,1.455,1.8,2.159,1.247,4.3.835,6.249.2,1.818-.593,3.141-1.29,4.19-.686.654.379.456.834-.274,1.257a3.608,3.608,0,0,1-3.125.182l-2.1,2.081a8.033,8.033,0,0,0,1.158.34,8.648,8.648,0,0,0,5.189-.626l1.642.95,2.213-1.279Z" transform="translate(77.011 -189.948)" fill="#ffd422"/>
          </g>
        </g>
        <path id="Path_4776" data-name="Path 4776" d="M-63.842,198.635v1.749l1.641.947v-1.749Z" transform="translate(77.011 -189.948)" fill="#ea7b1f"/>
        <path id="Path_4777" data-name="Path 4777" d="M-62.2,199.583v1.749l2.215-1.279V198.3Z" transform="translate(77.011 -189.948)" fill="#fbbc1e"/>
      </g>
      <g id="Group_6308" data-name="Group 6308" transform="translate(13.458 7.163)">
        <path id="Path_4778" data-name="Path 4778" d="M-77.011,191.238l2.212-1.016,1.665.67-1.642-.945Z" transform="translate(77.011 -189.948)" fill="#fbeb96"/>
        <path id="Path_4779" data-name="Path 4779" d="M-69.9,190.331a4.212,4.212,0,0,1,2.251.388l-1.509,1.832,1.971-1.988a8.3,8.3,0,0,0-5.234.065A12.731,12.731,0,0,1-69.9,190.331Z" transform="translate(77.011 -189.948)" fill="#fbeb96"/>
        <path id="Path_4780" data-name="Path 4780" d="M-60.5,194.76a2.943,2.943,0,0,0-1.284-1.237v-.006a5.824,5.824,0,0,0-2.949-.769c-.082,0-.17.006-.253.006h-.027l-.264.016c-.077.006-.154.012-.23.022-.033.006-.066.006-.094.011-.06.006-.121.011-.175.022a11.82,11.82,0,0,0-1.434.3c-.225.06-.45.126-.67.2-.318.1-.631.2-.928.3-.12.044-.236.082-.351.12a10.784,10.784,0,0,1-1.966.56,2.052,2.052,0,0,1-.846-.032,1.815,1.815,0,0,1-.395-.165.684.684,0,0,1-.342-.368h0a1.189,1.189,0,0,0,1.181.757,8.39,8.39,0,0,0,3.029-.666,10.466,10.466,0,0,1,4.657-.752C-62.408,193.308-60.925,193.989-60.5,194.76Z" transform="translate(77.011 -189.948)" fill="#fbeb96"/>
        <path id="Path_4781" data-name="Path 4781" d="M-61.624,197.356l1.125.948-1.7,1.279,2.215-1.279Z" transform="translate(77.011 -189.948)" fill="#fbeb96"/>
      </g>
      <g id="Group_6309" data-name="Group 6309" transform="translate(0.959 0.954)" opacity="0.3">
        <path id="Path_4782" data-name="Path 4782" d="M-83.054,195.059a4.709,4.709,0,0,1,.415-1.531l-3.967-3.967a11.894,11.894,0,0,0-.947,1Z" transform="translate(89.51 -183.739)" fill="#fff148" style="mix-blend-mode: soft-light;isolation: isolate"/>
        <path id="Path_4783" data-name="Path 4783" d="M-81.7,192.1a9.416,9.416,0,0,1,2.226-1.827l-3.343-3.343c-.249.131-.494.265-.734.4a18.222,18.222,0,0,0-1.76,1.155Z" transform="translate(89.51 -183.739)" fill="#fff148" style="mix-blend-mode: soft-light;isolation: isolate"/>
        <path id="Path_4784" data-name="Path 4784" d="M-53.925,195.357c0,.038.005.077.005.115,0,2.193-1.584,4.211-4.457,5.686-.027.014-.058.026-.085.039l3.305,3.306c.6-.277,1.173-.572,1.721-.888a14.464,14.464,0,0,0,4.236-3.533Z" transform="translate(89.51 -183.739)" fill="#fff148" style="mix-blend-mode: soft-light;isolation: isolate"/>
        <path id="Path_4785" data-name="Path 4785" d="M-74.48,206.712l-14.292-14.293a6.9,6.9,0,0,0-.738,3.053c0,.035,0,.07,0,.106l9.789,9.789A30.59,30.59,0,0,0-74.48,206.712Z" transform="translate(89.51 -183.739)" fill="#fff148" style="mix-blend-mode: soft-light;isolation: isolate"/>
        <path id="Path_4786" data-name="Path 4786" d="M-71.826,187.834a27.254,27.254,0,0,1,3.329-.21,24.448,24.448,0,0,1,8.164,1.325l-5.083-5.083c-1.011-.083-2.04-.127-3.081-.127a35.963,35.963,0,0,0-6.789.635Z" transform="translate(89.51 -183.739)" fill="#fff148" style="mix-blend-mode: soft-light;isolation: isolate"/>
        <path id="Path_4787" data-name="Path 4787" d="M-66.5,203.24c-.656.048-1.318.08-1.992.08-.7,0-1.386-.035-2.066-.085l3.918,3.918a35.988,35.988,0,0,0,3.683-.37Z" transform="translate(89.51 -183.739)" fill="#fff148" style="mix-blend-mode: soft-light;isolation: isolate"/>
        <path id="Path_4788" data-name="Path 4788" d="M-60.872,202.178a22.423,22.423,0,0,1-3.719.858l3.423,3.423a29.823,29.823,0,0,0,3.594-.983Z" transform="translate(89.51 -183.739)" fill="#fff148" style="mix-blend-mode: soft-light;isolation: isolate"/>
        <path id="Path_4789" data-name="Path 4789" d="M-58.215,185.256q-1.284-.408-2.656-.71l13.04,13.04a6.723,6.723,0,0,0,.331-1.615Z" transform="translate(89.51 -183.739)" fill="#fff148" style="mix-blend-mode: soft-light;isolation: isolate"/>
        <path id="Path_4790" data-name="Path 4790" d="M-78.089,189.539a18.778,18.778,0,0,1,3.4-1.18l-3.331-3.331a26.836,26.836,0,0,0-3.367,1.212Z" transform="translate(89.51 -183.739)" fill="#fff148" style="mix-blend-mode: soft-light;isolation: isolate"/>
        <path id="Path_4791" data-name="Path 4791" d="M-73.278,202.889a22.173,22.173,0,0,1-2.575-.629L-71,207.114q1,.067,2.026.08Z" transform="translate(89.51 -183.739)" fill="#fff148" style="mix-blend-mode: soft-light;isolation: isolate"/>
      </g>
      <g id="Group_6310" data-name="Group 6310" transform="translate(13.881 7.163)" opacity="0.4">
        <path id="Path_4792" data-name="Path 4792" d="M-68.193,193.422c-.207.067-.418.134-.614.2-.12.044-.236.082-.351.12a10.784,10.784,0,0,1-1.966.56,2.091,2.091,0,0,1-.792-.024l2.087,2.086c.319-.083.635-.176.945-.277.975-.318,1.807-.664,2.531-.825Z" transform="translate(76.588 -189.948)" fill="#fff148" style="mix-blend-mode: soft-light;isolation: isolate"/>
        <path id="Path_4793" data-name="Path 4793" d="M-72.694,193.5a1.417,1.417,0,0,1,.686-.653,3.242,3.242,0,0,1,2.85-.3l.047-.047-2.168-2.169a9.552,9.552,0,0,0-1.855.557l-1.642-.944-.931.538Z" transform="translate(76.588 -189.948)" fill="#fff148" style="mix-blend-mode: soft-light;isolation: isolate"/>
        <path id="Path_4794" data-name="Path 4794" d="M-64.961,196.654l-.007,0a3.608,3.608,0,0,1-3.125.182l-.633.628,1.923,1.923a9.478,9.478,0,0,0,2.96-.756l1.642.95.109-.062Z" transform="translate(76.588 -189.948)" fill="#fff148" style="mix-blend-mode: soft-light;isolation: isolate"/>
        <path id="Path_4795" data-name="Path 4795" d="M-67.424,190.8l.237-.239c-.216-.07-.435-.129-.655-.18Z" transform="translate(76.588 -189.948)" fill="#fff148" style="mix-blend-mode: soft-light;isolation: isolate"/>
        <path id="Path_4796" data-name="Path 4796" d="M-69.789,198.522l-.4.4a8.1,8.1,0,0,0,1.134.334Z" transform="translate(76.588 -189.948)" fill="#fff148" style="mix-blend-mode: soft-light;isolation: isolate"/>
        <path id="Path_4797" data-name="Path 4797" d="M-61.783,193.523v-.006a5.824,5.824,0,0,0-2.949-.769c-.082,0-.17.006-.253.006h-.027l-.264.016c-.054,0-.109.01-.163.016l4.279,4.279a2.06,2.06,0,0,0,.8-1.653,1.517,1.517,0,0,0-.011-.17A2.391,2.391,0,0,0-61.783,193.523Z" transform="translate(76.588 -189.948)" fill="#fff148" style="mix-blend-mode: soft-light;isolation: isolate"/>
        <path id="Path_4798" data-name="Path 4798" d="M-75.133,195.884a6,6,0,0,0,3.5.791l-4.14-4.14a2.161,2.161,0,0,0-.812,1.531v.017C-76.566,194.714-76.1,195.324-75.133,195.884Z" transform="translate(76.588 -189.948)" fill="#fff148" style="mix-blend-mode: soft-light;isolation: isolate"/>
      </g>
      <g id="Group_6311" data-name="Group 6311" transform="translate(0 0.158)">
        <path id="Path_4799" data-name="Path 4799" d="M-87.014,189.264c5.1-4.8,12.463-5.987,15.086-6.322a29.937,29.937,0,0,0-12.1,3.558c-8.581,4.954-8.581,12.987,0,17.941.309.178.627.348.949.514C-90.824,200.572-92.118,194.065-87.014,189.264Z" transform="translate(90.469 -182.942)" fill="#fbeb96"/>
        <path id="Path_4800" data-name="Path 4800" d="M-51.661,187.322c.652.487,7.879,6.115,3.2,12.608-4.9,6.794-16.6,8.5-24.887,7.912h0c7.109.925,14.858-.206,20.392-3.4C-44.836,199.752-44.407,192.306-51.661,187.322Z" transform="translate(90.469 -182.942)" fill="#fbeb96" style="mix-blend-mode: lighten;isolation: isolate"/>
      </g>
    </g>
  </g>
</svg>
