<svg xmlns="http://www.w3.org/2000/svg" width="25.14" height="20.9" viewBox="0 0 25.14 20.9">
  <g id="Group_6314" data-name="Group 6314" transform="translate(0.5 0.5)">
    <path id="Path_4801" data-name="Path 4801" d="M12.5,10.624A4.324,4.324,0,1,0,16.824,6.3,4.318,4.318,0,0,0,12.5,10.624Zm7.809,0A3.391,3.391,0,0,1,19.3,13.059a3.464,3.464,0,0,1-2.435,1.008,3.391,3.391,0,0,1-2.435-1.008,3.464,3.464,0,0,1-1.008-2.435,3.391,3.391,0,0,1,1.008-2.435,3.464,3.464,0,0,1,2.435-1.008A3.391,3.391,0,0,1,19.3,8.189,3.492,3.492,0,0,1,20.309,10.624Z" transform="translate(-8.596 -6.3)" fill="#2d2d2d" stroke="#2d2d2d" stroke-width="1"/>
    <path id="Path_4802" data-name="Path 4802" d="M39.511,15.1a3.611,3.611,0,1,0,3.611,3.611A3.61,3.61,0,0,0,39.511,15.1Zm1.973,5.584a2.722,2.722,0,0,1-1.973.8,2.794,2.794,0,0,1-1.973-.8,2.722,2.722,0,0,1-.8-1.973,2.794,2.794,0,0,1,.8-1.973,2.722,2.722,0,0,1,1.973-.8,2.794,2.794,0,0,1,1.973.8,2.839,2.839,0,0,1,0,3.946Z" transform="translate(-22.171 -11.405)" fill="#2d2d2d" stroke="#2d2d2d" stroke-width="1"/>
    <path id="Path_4803" data-name="Path 4803" d="M19.2,40.414H27.34V37.77c0-2.891-2.771-5.218-6.214-5.218H19.909a6.389,6.389,0,0,0-2.183.353A7.7,7.7,0,0,0,12.562,31H10.253C6.349,31,3.2,33.644,3.2,36.924v3.491h16Zm.714-7.158h1.26a5.887,5.887,0,0,1,3.778,1.3A4.148,4.148,0,0,1,26.5,37.735v1.939H19.615V36.888a5.344,5.344,0,0,0-1.343-3.455A8.615,8.615,0,0,1,19.909,33.257ZM4.082,36.924a4.818,4.818,0,0,1,1.805-3.667,6.824,6.824,0,0,1,4.366-1.551h2.309a6.826,6.826,0,0,1,4.366,1.516,4.794,4.794,0,0,1,1.805,3.667v2.785H4.082Z" transform="translate(-3.2 -20.514)" fill="#2d2d2d" stroke="#2d2d2d" stroke-width="1"/>
  </g>
</svg>
