<svg xmlns="http://www.w3.org/2000/svg" width="16.3" height="16.3" viewBox="0 0 16.3 16.3"><defs><style>.a{stroke:#000;stroke-width:0.3px;}</style></defs><g transform="translate(0.15 0.15)"><g transform="translate(1.688)"><path class="a" d="M56.183,2.243h-.569c.086-.633.436-.665.6-.68a.313.313,0,0,0,.284-.311V.317a.312.312,0,0,0-.33-.312C55.178.061,54,.56,54,2.62V4.246a.493.493,0,0,0,.492.492h1.691a.493.493,0,0,0,.492-.492V2.736A.493.493,0,0,0,56.183,2.243Zm-.133,1.87H54.625V2.62c0-1.438.639-1.839,1.245-1.953V1c-.418.127-.9.5-.9,1.56a.313.313,0,0,0,.313.313h.768Z" transform="translate(-54 -0.005)"/></g><g transform="translate(4.882)"><path class="a" d="M158.417,2.243h-.569c.086-.633.436-.665.6-.68a.313.313,0,0,0,.284-.311V.317a.313.313,0,0,0-.33-.312c-.988.056-2.165.554-2.165,2.615V4.246a.493.493,0,0,0,.492.492h1.691a.493.493,0,0,0,.492-.492V2.736A.493.493,0,0,0,158.417,2.243Zm-.133,1.87h-1.425V2.62c0-1.438.639-1.839,1.245-1.953V1c-.418.127-.9.5-.9,1.56a.312.312,0,0,0,.313.313h.768Z" transform="translate(-156.234 -0.005)"/></g><g transform="translate(8.375 2.433)"><path class="a" d="M268.533,77.957a.312.312,0,1,0,.092.221A.315.315,0,0,0,268.533,77.957Z" transform="translate(-268 -77.865)"/></g><g transform="translate(0 2.433)"><path class="a" d="M10.446,77.864h-.394a.313.313,0,0,0,0,.625h.394a4.93,4.93,0,0,1,1.017,9.753.313.313,0,0,0-.248.306v1.816L9.29,88.439a.313.313,0,0,0-.221-.092H5.554a4.931,4.931,0,0,1-4.311-7.321.312.312,0,1,0-.546-.3,5.556,5.556,0,0,0,4.857,8.25H8.94l2.367,2.367a.313.313,0,0,0,.533-.221V88.8a5.555,5.555,0,0,0-1.394-10.932Z" transform="translate(0 -77.864)"/></g></g></svg>