<svg xmlns="http://www.w3.org/2000/svg" width="20" height="20.273" viewBox="0 0 20 20.273"><defs><style>.a{fill:#fff;opacity:0;}.b,.c{fill:#2c2c2c;}.b{stroke:#2c2c2c;stroke-width:0.25px;}.c{font-size:7px;font-family:HelveticaNeue-Bold, Helvetica Neue;font-weight:700;}</style></defs><g transform="translate(748 -920.854)"><rect class="a" width="20" height="20" transform="translate(-748 921)"/><g transform="translate(-30 -13.972)"><g transform="matrix(-0.017, -1, 1, -0.017, -715.763, 954.972)"><path class="b" d="M8.332,16.663A8.332,8.332,0,0,1,8.332,0,8.2,8.2,0,0,1,13.27,1.632a.607.607,0,0,1-.718.979,7.112,7.112,0,1,0-4.22,12.835A7.165,7.165,0,0,0,12.6,14.031a.607.607,0,0,1,.718.979A8.117,8.117,0,0,1,8.332,16.663Z" transform="translate(0 0)"/></g><g transform="matrix(-0.017, -1, 1, -0.017, -711.517, 943.177)"><g transform="translate(0 3.538)"><path class="b" d="M6.919.5a.473.473,0,0,1-.479.413H.48A.473.473,0,0,1,0,.5.458.458,0,0,1,.458,0H6.441A.462.462,0,0,1,6.919.5Z" transform="translate(0.09 0.087)"/><path class="b" d="M6.509,1.088H.57A.551.551,0,0,1,0,.587.5.5,0,0,1,.156.174.594.594,0,0,1,.57,0H6.552a.594.594,0,0,1,.413.174.574.574,0,0,1,.152.413A.629.629,0,0,1,6.509,1.088ZM.548.174A.351.351,0,0,0,.265.3.343.343,0,0,0,.178.587.4.4,0,0,0,.57.935H6.509A.369.369,0,0,0,6.9.587.4.4,0,0,0,6.813.3.351.351,0,0,0,6.53.174Z" transform="translate(0 0)"/></g><g transform="translate(3.572 0)"><path class="b" d="M4.239,3.783a.276.276,0,0,1,0,.392L.8,7.829A.454.454,0,0,1,.15,7.85.454.454,0,0,1,.128,7.2l3.024-3.22h0L.128.781A.453.453,0,0,1,.15.128.453.453,0,0,1,.8.15Z" transform="translate(0.09 0.103)"/><path class="b" d="M.566,8.15A.477.477,0,0,1,.2,8a.545.545,0,0,1-.174-.392.524.524,0,0,1,.152-.392L3.133,4.082.152.927A.524.524,0,0,1,0,.536.545.545,0,0,1,.174.144.572.572,0,0,1,.957.166L4.394,3.8a.4.4,0,0,1,0,.522L.957,8A.524.524,0,0,1,.566,8.15Zm0-7.962A.4.4,0,0,0,.3.3.36.36,0,0,0,.2.558.36.36,0,0,0,.3.819L3.394,4.082l-.044.065L.283,7.345a.4.4,0,0,0-.109.261.36.36,0,0,0,.109.261.4.4,0,0,0,.544-.022L4.264,4.212a.229.229,0,0,0,0-.283L.827.3A.4.4,0,0,0,.566.188Z" transform="translate(0 0)"/></g></g><text class="c" transform="translate(-709.551 950.177)"><tspan x="0" y="0">$</tspan></text></g></g></svg>