<svg xmlns="http://www.w3.org/2000/svg" width="25" height="25" viewBox="0 0 25 25"><defs><style>.a,.b{fill:#fff;}.a{opacity:0;}.c{fill:#1a73e8;}.d{fill:#060606;}</style></defs><g transform="translate(1344 -334)"><rect class="a" width="25" height="25" transform="translate(-1344 334)"/><g transform="translate(-1481.389 28.024)"><circle class="b" cx="6.346" cy="6.346" r="6.346" transform="translate(140.738 316.945)"/><g transform="translate(137.389 305.976)"><g transform="translate(0 0)"><path class="c" d="M30.929,10.17l-20.94,0a.723.723,0,0,1,0-1.446l18.207,0a.865.865,0,0,0,0-1.731H9.408A2.022,2.022,0,0,0,7.389,9.007v18.21a1.044,1.044,0,0,0,1.044,1.044h2.22a7.611,7.611,0,0,0,12.864,0h7.412a1.044,1.044,0,0,0,1.044-1.044v-16A1.044,1.044,0,0,0,30.929,10.17ZM17.085,30.361a6.184,6.184,0,0,1-6.177-6.177,6.267,6.267,0,0,1,.048-.769,6.178,6.178,0,1,1,6.13,6.945ZM30.376,17.226H24.719a1.936,1.936,0,0,1,0-3.873h5.657Zm-6.3-1.936a.83.83,0,1,0,.83-.83A.83.83,0,0,0,24.081,15.29Z" transform="translate(-7.389 -6.988)"/></g></g><g transform="translate(145.182 319.957)"><path class="d" d="M-222.423,3963.943v-1.416l1.616,1.416-1.616,1.416Z" transform="translate(222.423 -3960.609)"/><path class="d" d="M-222.423,3952.069v-1.353l2.265-1.982-2.265-1.982V3945.4l3.807,3.335Z" transform="translate(222.423 -3945.399)"/></g></g></g></svg>