<svg xmlns="http://www.w3.org/2000/svg" width="20" height="20" viewBox="0 0 20 20"><defs><style>.a{fill:#fff;opacity:0;}.b{fill:#2c2c2c;}</style></defs><g transform="translate(750 -949)"><rect class="a" width="20" height="20" transform="translate(-750 949)"/><g transform="translate(-751 948)"><path class="b" d="M19.363,20.439H8.892A1.892,1.892,0,0,1,7,18.547V1.648A.648.648,0,0,1,7.648,1H19.363a1.892,1.892,0,0,1,1.892,1.892V18.547A1.892,1.892,0,0,1,19.363,20.439ZM8.3,2.3V18.547a.6.6,0,0,0,.6.6H19.363a.6.6,0,0,0,.6-.6V2.892a.6.6,0,0,0-.6-.6Z" transform="translate(-1.408)"/><path class="b" d="M6.24,10.071H4.892A1.892,1.892,0,0,1,3,8.179V2.892A1.892,1.892,0,0,1,4.892,1H6.24a.648.648,0,0,1,.648.648V9.423A.648.648,0,0,1,6.24,10.071ZM4.892,2.3a.6.6,0,0,0-.6.6V8.179a.6.6,0,0,0,.6.6h.7V2.3Z"/><path class="b" d="M19.128,6.3h-6.48a.648.648,0,0,1,0-1.3h6.48a.648.648,0,1,1,0,1.3Z" transform="translate(-3.168 -1.408)"/><path class="b" d="M19.128,12.3h-6.48a.648.648,0,0,1,0-1.3h6.48a.648.648,0,1,1,0,1.3Z" transform="translate(-3.168 -3.52)"/><path class="b" d="M16.536,18.3H12.648a.648.648,0,0,1,0-1.3h3.888a.648.648,0,0,1,0,1.3Z" transform="translate(-3.168 -5.633)"/></g></g></svg>